<?xml version="1.0" encoding="UTF-8" standalone="no"?>
<svg xmlns="http://www.w3.org/2000/svg" xmlns:xlink="http://www.w3.org/1999/xlink" width="297.000mm" height="210.000mm" viewBox="0.000000 0.000000 297.000000 210.000000" stroke-linejoin="round" stroke-linecap="round" fill="none" fill-rule="evenodd"><desc>Composer Export</desc><script type="text/ecmascript"><![CDATA[
if(typeof(top) != "undefined")
{
	top.ShowPaper = ShowPaper;
}
function ShowHotSpot(evt,hotspotid)
{
	var svgDocument = evt.target.ownerDocument;
	var strId = "hotspot."+hotspotid;
	var hotspot = svgDocument.getElementById(strId);
	if(hotspot)
		hotspot.setAttribute("opacity",".5");
}
function HideHotSpot(evt,hotspotid)
{
	var svgDocument = evt.target.ownerDocument;
	var strId = "hotspot."+hotspotid;
	var hotspot = svgDocument.getElementById(strId);
	if(hotspot)
		hotspot.setAttribute("opacity","0");

	var toolTip = svgDocument.getElementById('ToolTip');
	if(toolTip)
		toolTip.setAttribute("visibility","hidden");
}
function ShowToolTip(evt,hotspotid,strTooltip)
{
	if(strTooltip=="")
	return;

	// change text
	var svgDocument = evt.target.ownerDocument;
	var tiptext = svgDocument.getElementById('ToolTipText');
	if( !tiptext )
	return;
	tiptext.firstChild.nodeValue = " " + strTooltip + "  " ;

	// show tooltip before, else some refresh issue

	var toolTip = svgDocument.getElementById('ToolTip');
	if(!toolTip)
	return;

	toolTip.setAttribute("visibility","visible");
	toolTip.setAttribute("opacity",".95");

	// move tooltip
	// get viewbox

	var root = svgDocument.documentElement;
	var vbox = (root.getAttribute("viewBox")).split(' ');
	var x0 = parseFloat(vbox[0]);
	var y0 = parseFloat(vbox[1]);
	var vboxW = parseFloat(vbox[2]);
	var vboxH = parseFloat(vbox[3]);

	// get default width of svg

	var strW = root.getAttribute("width");
	var svgW = parseFloat(strW);
	if(strW.indexOf('mm') != -1)
	svgW *= 3.779;

	var strH = root.getAttribute("height");
	var svgH = parseFloat(strH);
	if(strH.indexOf('mm') != -1)
	svgH *= 3.779;  	// 96 dpi  -> 96/25.4 = 3.779

	// update the viewbox / width / height if svg is embedded in html with zoom fit all
	var realx0 = x0;
	var realy0 = y0;
	var realvboxW = vboxW;
	var realvboxH = vboxH;
	var realsvgW = svgW;
	var realsvgH = svgH;

	if ((typeof(top) == "undefined") || (typeof(top.svgctl1) != "undefined")) // embedded in html
	{
		// get window size in pxl

		svgW = window.innerWidth;
		svgH = window.innerHeight;

		// calculate real viewbox

		realsvgW = svgW;
		realsvgH = svgH;
		if((svgW / svgH) > (vboxW / vboxH))
		{
			realvboxW = (vboxH * svgW) / svgH;
			realvboxH = vboxH;
			realx0 = x0 - (realvboxW - vboxW)/2 ;
		}
		else
		{
			realvboxH = (vboxW * svgH) / svgW;
			realvboxW = vboxW;
			realy0 = y0 - (realvboxH - vboxH)/2 ;
		}
	}

	// get user zoom/pan

	var newScale = root.currentScale;
	var translation = root.currentTranslate;

	// transform pxl to user unit

	var xPos = (((evt.clientX+10- translation.x)/newScale) * realvboxW)/realsvgW  + realx0 ;
	var yPos = (((evt.clientY+5- translation.y)/newScale) * realvboxH)/ realsvgH  + realy0 ;
	var scaleForWidth = ( (1 / newScale) * realvboxH) / realsvgH;

	// move tooltip

	toolTip.setAttribute("transform", "translate(" + xPos + "," + yPos + ")" );

	// resize tooltip

	var fontsize = 12;
	tiptext.setAttribute("font-size",fontsize*scaleForWidth);
	tiptext.setAttribute("y", fontsize*scaleForWidth);
	var tipBG = svgDocument.getElementById('ToolTipBG');
	var outline = tiptext.getBBox();
	if(tipBG)
	{
		tipBG.setAttribute("stroke-width", 1*scaleForWidth);
		tipBG.setAttribute("width", Number(outline.width) );
		tipBG.setAttribute("height", Number(outline.height) + fontsize*.5*scaleForWidth );
	}
	var ToolTipShadow = svgDocument.getElementById('ToolTipShadow');
	if(ToolTipShadow)
	{
		ToolTipShadow.setAttribute("width", Number(outline.width) );
		ToolTipShadow.setAttribute("height", Number(outline.height) + fontsize*.5*scaleForWidth );
		ToolTipShadow.setAttribute("x", 3*scaleForWidth);
		ToolTipShadow.setAttribute("y", 3*scaleForWidth);
	}
}
function ShowPaper()
{
  var svgDocument = getDocument();
  var paper = svgDocument.getElementById("paperID");
  if(paper)
  {
    paper.setAttribute("transform","scale(1)");
    paper.setAttribute("opacity","1");
    paper.setAttribute("visibility","visible");
  }
  var svg = svgDocument.getRootElement();
  if(svg)
  {
    svg.setAttribute("width","307.000mm");
    svg.setAttribute("height","220.000mm");
    svg.setAttribute("viewBox","-5.000000 -5.000000 307.000000 220.000000");
  }
}
]]></script><defs/><g><path style="fill:#ffffff" d="M180.76,43.03L178.73,42.90L176.36,42.91L176.28,44.31L175.10,44.31L175.01,44.39L174.97,46.20L174.70,46.27L173.27,46.27L173.18,47.39L172.53,72.71L171.21,72.40L171.53,56.22L171.84,44.12L171.21,44.11L169.60,43.98L166.68,43.85L166.66,45.66L165.70,45.72L164.63,45.66L163.94,45.66L163.71,45.69L163.65,43.71L163.15,43.70L162.75,43.64L158.88,43.46L158.81,45.25L156.69,45.19L155.59,45.08L154.86,45.19L154.82,47.55L154.01,47.61L153.61,47.54L152.12,47.48L151.86,47.40L151.82,44.93L151.19,44.91L151.06,44.85L147.69,44.65L146.79,44.66L146.73,74.06L146.24,73.91L146.18,47.08L145.96,46.99L144.60,46.93L144.07,46.87L144.04,46.77L143.90,44.39L143.68,44.37L143.12,44.37L140.84,44.24L139.13,44.25L139.48,80.22L138.58,80.09L138.25,50.03L138.16,49.96L137.35,49.83L137.31,46.40L136.54,46.36L136.49,46.28L135.19,46.26L133.31,46.13L132.61,46.02L131.88,46.14L131.79,49.40L131.48,49.51L131.95,78.50L129.81,77.92L129.11,45.87L128.89,45.78L127.67,45.72L125.12,45.53L124.29,45.52L124.07,45.60L124.05,48.61L122.85,48.64L122.78,48.59L121.93,48.69L121.98,53.00L122.38,67.11L122.54,76.21L122.45,76.18L121.59,45.33L121.37,45.25L120.14,45.19L118.26,45.05L116.82,45.06L116.92,48.08L116.78,48.11L116.73,48.04L115.31,48.00L115.17,47.95L113.20,47.88L113.24,50.17L114.49,84.26L111.95,83.44L110.47,47.57L110.43,47.48L110.21,47.46L109.26,47.46L109.12,47.41L107.79,47.33L107.64,47.28L105.27,47.21L105.32,49.10L106.82,81.99L105.66,81.70L104.25,52.04L104.10,51.79L103.48,51.71L103.08,51.57L102.91,46.93L102.79,46.79L102.55,46.79L101.73,46.80L101.46,46.73L100.13,46.66L99.98,46.61L98.01,46.54L98.20,51.16L97.74,51.24L97.79,53.26L98.46,65.63L99.16,79.70L97.70,79.39L95.92,46.53L95.78,46.28L95.43,46.19L94.07,46.13L93.80,46.06L92.59,45.99L92.33,45.93L91.78,45.93L91.28,46.01L91.52,50.23L89.22,50.15L89.00,50.16L91.62,91.40L89.24,90.55L88.38,76.38L86.65,49.89L86.52,49.76L86.15,49.69L82.74,49.23L81.21,49.23L81.19,49.32L83.96,88.43L81.96,87.73L79.11,48.82L78.62,48.82L75.75,48.43L74.31,48.41L74.22,48.43L74.27,50.17L77.12,85.88L75.35,85.21L72.27,48.03L72.18,48.00L68.89,47.62L68.41,47.67L67.77,47.75L67.82,48.69L70.80,83.46L69.70,83.10L69.20,82.89L68.63,75.57L66.21,48.02L66.08,47.34L65.45,47.27L63.12,46.95L62.07,47.00L61.86,47.07L75.61,195.72L75.76,196.11L78.31,199.07L78.63,199.27L79.08,199.22L79.39,199.00L78.57,188.86L77.36,175.02L77.30,173.64L78.19,174.33L78.71,175.01L80.99,201.63L81.11,202.31L83.95,205.66L84.27,205.86L84.98,205.66L85.02,204.18L82.94,179.15L84.63,180.79L86.89,209.03L87.75,210.03L0.04,210.01L0.04,0.04L296.96,0.04L296.96,210.01L140.03,210.02L139.52,165.71L140.25,166.15L140.38,168.98L140.53,169.37L141.33,169.92L141.60,193.03L145.79,196.21L145.99,196.28L146.59,195.91L146.50,170.28L146.84,170.45L146.98,173.68L149.39,175.29L149.39,199.08L154.01,202.63L154.64,202.34L154.89,179.36L154.99,179.14L157.99,181.07L157.86,199.39L157.87,205.66L160.42,207.67L162.72,209.38L162.92,209.45L163.50,209.06L163.98,185.06L164.60,185.49L165.85,186.24L166.34,186.09L166.48,185.96L166.87,169.42L166.94,167.72L167.14,167.88L168.26,168.49L168.76,168.22L168.96,162.61L170.09,163.20L169.64,180.40L169.51,188.77L174.14,191.79L174.34,191.84L174.79,191.59L175.39,172.70L175.64,172.78L176.14,172.64L176.38,166.81L176.45,166.74L178.97,168.15L178.15,192.13L178.15,194.51L182.34,197.31L183.17,197.78L183.76,197.46L185.76,154.14L187.43,154.86L187.12,163.24L187.97,163.71L187.52,172.33L187.25,179.63L191.74,182.28L192.03,182.34L192.55,182.06L193.82,158.04L195.24,158.75L195.04,162.52L194.91,167.27L196.83,168.30L196.12,180.40L195.99,184.74L200.72,187.54L201.05,187.59L201.38,187.54L201.54,187.43L204.16,148.22L204.51,148.39L203.01,171.52L207.73,173.91L207.93,173.95L208.25,173.71L209.87,152.49L209.90,150.68L210.95,151.10L213.51,152.29L211.71,176.00L216.73,178.67L216.92,178.61L217.26,178.42L217.53,176.14L228.70,45.20L228.21,45.18L228.06,45.12L223.75,44.92L221.92,44.93L219.57,74.86L215.55,74.29L215.65,74.01L217.81,44.66L217.31,44.65L211.57,44.39L211.47,44.69L209.60,72.79L209.48,73.38L209.13,73.26L210.95,46.13L210.32,46.09L210.27,46.01L208.97,45.99L207.63,45.93L207.60,45.83L207.59,44.25L207.10,44.24L206.83,44.18L202.79,43.98L201.76,43.98L200.22,71.91L198.65,71.77L198.94,64.96L199.98,45.69L199.72,45.51L198.49,45.46L198.22,45.40L198.19,43.85L197.83,43.77L196.74,43.71L192.75,43.58L191.48,70.69L190.38,70.47L189.51,70.42L190.53,47.22L189.93,47.13L189.85,45.06L189.36,45.02L189.45,43.45L188.96,43.43L188.82,43.37L184.29,43.18L184.19,44.69L184.04,44.81L183.83,46.76L183.61,46.81L182.74,69.35L182.37,69.35L181.51,69.12L180.57,69.00L180.34,68.90L181.25,43.04z"/><path style="fill:#a15b48" d="M120.14,45.19L120.82,45.32L121.70,75.98L121.89,76.37L122.53,76.43L122.54,76.21L122.38,67.11L121.98,53.00L121.93,48.69L122.78,48.59L122.85,48.64L122.88,48.72L124.44,48.78L124.50,48.86L125.92,48.92L125.98,49.00L127.14,49.08L127.97,88.52L128.20,88.61L132.07,89.73L132.09,89.41L131.94,89.27L128.99,88.41L128.08,49.18L128.03,49.09L127.40,49.01L125.92,48.92L125.87,48.84L124.44,48.78L124.05,48.61L124.07,45.60L124.29,45.52L125.12,45.53L127.67,45.72L128.34,45.86L129.05,78.04L129.27,78.13L131.93,78.72L131.95,78.50L131.48,49.51L131.79,49.40L131.88,46.14L132.61,46.02L133.31,46.13L135.19,46.26L136.54,46.36L136.50,49.73L135.06,49.72L135.00,49.65L133.54,49.50L132.00,49.50L133.40,49.64L135.06,49.72L135.12,49.80L136.54,49.86L136.59,49.94L137.21,50.02L139.23,210.02L134.39,210.02L133.95,188.99L132.87,188.06L131.05,186.67L130.85,186.43L130.26,186.04L130.76,210.02L126.46,210.02L125.62,182.40L123.33,180.52L123.13,180.48L122.25,179.71L123.11,207.61L122.66,207.26L119.16,204.05L119.02,203.38L117.96,176.36L115.73,174.57L114.98,173.92L114.81,173.93L115.98,200.90L115.67,200.83L113.92,199.08L112.72,197.99L112.17,197.46L110.96,171.39L110.84,170.71L110.02,170.04L109.83,170.00L105.65,82.11L106.80,82.35L106.82,81.99L105.32,49.10L105.27,47.21L107.64,47.28L107.79,47.33L109.12,47.41L109.26,47.46L109.51,47.61L109.62,48.16L111.04,83.55L111.13,83.62L114.48,84.62L114.49,84.26L113.24,50.17L113.20,47.88L115.17,47.95L115.31,48.00L116.78,48.11L116.84,48.19L117.86,48.28L117.95,48.55L119.15,85.66L119.25,85.96L119.43,86.02L119.82,86.20L122.93,87.04L122.93,86.74L120.01,85.84L119.29,60.52L118.89,48.29L118.27,48.21L116.92,48.08L116.82,45.06L118.26,45.05z"/><path style="fill:#512e2f" d="M137.21,50.02L138.16,49.96L138.25,50.03L138.58,80.09L138.58,80.36L139.52,165.71L140.03,210.02L139.23,210.02z"/><path style="fill:#a15b48" d="M180.76,43.03L180.57,47.94L180.44,44.52L179.99,44.52L179.19,66.43L179.03,73.92L179.05,74.00L182.05,74.50L182.47,74.49L182.35,74.35L179.55,73.88L179.77,68.17L179.85,69.04L180.07,69.06L182.37,69.35L182.72,69.45L182.74,69.35L183.61,46.81L183.83,46.76L183.89,46.85L185.15,46.81L183.83,46.76L184.04,44.81L184.19,44.69L184.29,43.18L188.82,43.37L188.96,43.43L188.82,44.85L188.04,44.93L189.22,44.99L189.36,45.02L189.23,47.00L188.31,47.08L189.63,47.14L189.72,47.21L189.71,49.41L183.17,197.78L182.34,197.31L178.15,194.51L178.15,192.13L178.97,168.15L176.45,166.74L176.13,166.53L175.97,166.55L175.86,166.85L175.64,172.78L175.39,172.70L175.61,166.27L175.19,165.99L175.02,166.00L174.26,190.65L174.14,191.79L169.51,188.77L169.64,180.40L170.09,163.20L168.96,162.61L168.43,162.25L168.26,168.49L167.14,167.88L166.94,167.72L167.00,161.45L166.46,161.17L165.85,186.24L164.60,185.49L163.98,185.06L166.60,48.41L166.25,48.40L165.47,48.42L165.69,48.55L165.66,54.38L162.83,207.72L162.72,209.38L160.42,207.67L157.87,205.66L157.86,199.39L157.99,181.07L154.99,179.14L154.91,175.82L154.23,175.28L154.01,202.63L149.39,199.08L149.39,175.29L146.98,173.68L146.84,170.45L146.50,170.28L146.02,169.89L145.86,169.90L145.79,196.21L141.60,193.03L141.33,169.92L140.53,169.37L140.38,168.98L140.25,166.15L139.52,165.71L138.58,80.36L139.98,80.68L140.54,80.71L140.54,80.56L139.48,80.22L139.13,44.25L140.84,44.24L143.12,44.37L143.26,44.51L143.26,46.74L142.75,46.81L144.07,46.87L144.60,46.93L145.41,47.06L145.50,75.98L145.58,81.94L145.67,82.02L149.40,82.88L149.43,82.70L149.28,82.55L146.43,81.89L146.34,81.82L146.24,74.18L146.71,74.14L146.73,74.06L146.79,44.66L147.69,44.65L151.06,44.85L151.19,44.91L151.19,47.28L150.28,47.35L151.73,47.41L151.86,47.40L152.12,47.48L153.61,47.54L154.01,47.61L155.09,47.74L154.84,84.13L154.86,84.21L158.66,85.12L159.22,85.15L159.22,85.00L158.40,84.71L155.63,84.10L155.90,47.84L155.50,47.67L154.82,47.55L154.86,45.19L155.59,45.08L156.69,45.19L158.81,45.25L158.88,43.46L162.75,43.64L163.15,43.70L163.10,47.12L162.99,48.11L161.57,48.16L163.02,48.22L163.54,48.25L163.60,48.33L164.86,48.29L163.54,48.25L163.64,47.80L163.71,45.69L163.94,45.66L164.63,45.66L165.70,45.72L166.88,45.75L166.66,45.66L166.68,43.85L169.60,43.98L171.21,44.11L170.58,72.53L170.80,72.55L171.02,72.62L172.51,72.80L172.53,72.71L173.18,47.39L173.27,46.27L174.70,46.27L176.02,46.28L174.97,46.20L175.01,44.39L175.10,44.31L176.28,44.31L176.36,42.91L178.73,42.90z"/><path style="fill:#512e2f" d="M189.23,47.00L189.36,45.02L189.85,45.06L189.93,47.13L190.53,47.22L189.51,70.42L189.51,70.55L189.24,75.52L189.24,75.79L185.76,154.14L183.76,197.46L183.17,197.78L189.71,49.41L189.72,47.21L189.63,47.14z"/><path style="fill:#a15b48" d="M196.74,43.71L197.70,43.83L197.73,45.39L198.22,45.40L198.49,45.46L199.44,45.59L197.71,77.14L197.73,77.23L201.54,77.86L202.22,77.86L201.95,77.71L198.36,77.11L198.57,72.26L198.66,71.90L200.22,72.12L200.22,71.91L201.76,43.98L202.79,43.98L206.83,44.18L207.10,44.24L207.10,45.80L206.46,45.87L207.63,45.93L208.97,45.99L210.32,46.09L201.05,187.59L200.72,187.54L195.99,184.74L196.12,180.40L196.83,168.30L194.91,167.27L195.04,162.52L195.24,158.75L193.82,158.04L193.49,157.81L193.33,157.97L192.03,182.34L191.74,182.28L187.25,179.63L187.52,172.33L187.97,163.71L187.12,163.24L187.43,154.86L185.76,154.14L189.24,75.79L191.46,76.11L192.14,76.12L189.24,75.52L189.51,70.55L191.45,70.79L191.48,70.69L192.75,43.58z"/><path style="fill:#a15b48" d="M93.80,46.06L94.07,46.13L95.01,46.26L96.85,78.93L96.92,79.43L96.94,79.51L98.72,80.02L99.14,80.06L99.16,79.70L98.46,65.63L97.79,53.26L97.74,51.24L98.20,51.16L98.01,46.54L99.98,46.61L100.13,46.66L101.46,46.73L101.73,46.80L101.99,46.94L102.14,51.44L99.94,51.25L98.88,51.12L98.41,51.26L102.90,51.79L102.97,51.88L110.74,210.02L106.30,210.02L105.86,201.89L103.50,199.57L102.44,198.54L103.08,210.02L99.18,210.02L98.20,194.64L97.94,194.08L96.11,192.32L95.10,191.27L95.10,192.63L96.22,210.02L92.73,210.02L91.08,187.24L89.26,185.46L88.25,184.42L88.19,184.43L89.99,208.08L90.18,210.02L87.75,210.03L86.89,209.03L84.63,180.79L82.94,179.15L82.07,178.23L82.07,179.32L84.27,205.86L83.95,205.66L81.11,202.31L80.99,201.63L78.71,175.01L78.19,174.33L77.30,173.64L76.29,172.59L76.23,172.60L78.63,199.27L78.31,199.07L75.76,196.11L75.61,195.72L61.86,47.07L62.07,47.00L65.04,47.34L68.31,83.02L68.40,83.09L70.78,83.96L70.80,83.46L67.82,48.69L67.77,47.75L68.41,47.67L68.62,47.76L70.91,48.02L71.22,48.14L74.35,85.30L74.45,85.37L74.66,85.52L77.10,86.38L77.12,85.88L74.27,50.17L74.22,48.43L74.31,48.41L77.77,48.82L77.95,48.94L80.94,87.85L81.03,87.93L83.96,89.05L83.96,88.43L81.19,49.32L85.47,49.75L88.20,90.67L88.41,90.75L91.20,91.84L91.61,91.89L91.62,91.40L89.00,50.16L89.22,50.15L93.68,50.68L93.76,50.83L96.26,93.76L96.45,93.81L98.19,94.52L99.94,95.11L99.96,94.64L99.13,94.26L97.40,93.55L94.97,51.25L94.83,50.71L94.35,50.63L91.52,50.23L91.28,46.01L91.78,45.93L92.33,45.93L92.59,45.99z"/><path style="fill:#512e2f" d="M180.57,47.94L180.76,43.03L181.25,43.04L180.34,68.90L180.07,69.06L179.85,69.04L179.77,68.17L179.55,73.88L179.03,73.92L179.19,66.43L179.99,44.52L180.44,44.52z"/><path style="fill:#512e2f" d="M104.25,52.04L105.66,81.70L105.65,82.11L109.83,170.00L111.68,210.02L110.74,210.02L102.97,51.88L103.48,51.71L104.10,51.79z"/><path style="fill:#512e2f" d="M171.53,56.22L171.21,72.40L170.80,72.55L170.58,72.53L171.21,44.11L171.84,44.12z"/><path style="fill:#512e2f" d="M145.41,47.06L145.96,46.99L146.18,47.08L146.24,73.91L146.24,74.18L146.34,81.82L145.67,82.02L145.58,81.94L145.50,75.98z"/><path style="fill:#512e2f" d="M199.98,45.69L198.94,64.96L198.65,71.77L198.66,71.90L198.57,72.26L198.36,77.11L197.71,77.14L199.44,45.59L199.72,45.51z"/><path style="fill:#512e2f" d="M178.47,80.33L177.93,80.47L177.83,80.44L178.91,46.54L179.65,46.55z"/><path style="fill:#512e2f" d="M209.13,73.26L209.14,73.51L204.16,148.22L201.54,187.43L201.38,187.54L201.05,187.59L210.32,46.09L210.95,46.13z"/><path style="fill:#a15b48" d="M217.31,44.65L217.26,44.83L215.34,70.60L215.19,74.28L215.28,74.36L218.74,74.90L219.55,74.94L219.57,74.86L221.92,44.93L223.75,44.92L228.06,45.12L228.21,45.18L228.15,45.37L217.22,173.95L216.92,178.61L216.73,178.67L211.71,176.00L213.51,152.29L210.95,151.10L209.90,150.68L209.54,150.57L207.86,173.59L207.73,173.91L203.01,171.52L204.51,148.39L204.16,148.22L209.14,73.51L209.46,73.47L209.48,73.38L209.60,72.79L211.47,44.69L211.57,44.39z"/><path style="fill:#874b3d" d="M197.83,43.77L197.70,43.83L196.74,43.71z"/><path style="fill:#874b3d" d="M143.26,44.51L143.12,44.37L143.68,44.37z"/><path style="fill:#874b3d" d="M189.22,44.99L188.04,44.93L188.82,44.85z"/><path style="fill:#874b3d" d="M121.37,45.25L120.82,45.32L120.14,45.19z"/><path style="fill:#874b3d" d="M160.21,45.38L159.65,45.45L159.02,45.34z"/><path style="fill:#874b3d" d="M199.72,45.51L199.44,45.59L198.49,45.46z"/><path style="fill:#874b3d" d="M165.70,45.72L166.66,45.66L166.88,45.75z"/><path style="fill:#874b3d" d="M128.89,45.78L128.34,45.86L127.67,45.72z"/><path style="fill:#874b3d" d="M207.63,45.93L206.46,45.87L207.10,45.80L207.60,45.83z"/><path style="fill:#874b3d" d="M169.21,45.92L168.93,45.99L168.02,45.87z"/><path style="fill:#874b3d" d="M210.32,46.09L208.97,45.99L210.27,46.01z"/><path style="fill:#874b3d" d="M95.43,46.19L95.01,46.26L94.07,46.13z"/><path style="fill:#874b3d" d="M174.70,46.27L174.97,46.20L176.02,46.28z"/><path style="fill:#874b3d" d="M136.54,46.36L135.19,46.26L136.49,46.28z"/><path style="fill:#874b3d" d="M183.89,46.85L183.83,46.76L185.15,46.81z"/><path style="fill:#874b3d" d="M144.07,46.87L142.75,46.81L143.26,46.74L144.04,46.77z"/><path style="fill:#874b3d" d="M101.99,46.94L101.73,46.80L102.55,46.79z"/><path style="fill:#874b3d" d="M145.96,46.99L145.41,47.06L144.60,46.93z"/><path style="fill:#874b3d" d="M65.45,47.27L65.04,47.34L62.07,47.00L63.12,46.95z"/><path style="fill:#874b3d" d="M189.63,47.14L188.31,47.08L189.23,47.00z"/><path style="fill:#874b3d" d="M151.73,47.41L150.28,47.35L151.19,47.28z"/><path style="fill:#874b3d" d="M109.51,47.61L109.26,47.46L110.21,47.46z"/><path style="fill:#874b3d" d="M155.50,47.67L155.09,47.74L154.01,47.61L154.82,47.55z"/><path style="fill:#874b3d" d="M72.18,48.00L71.22,48.14L70.91,48.02L68.62,47.76L68.41,47.67L68.89,47.62z"/><path style="fill:#874b3d" d="M159.70,48.07L159.68,47.98L160.33,47.95L161.10,48.02z"/><path style="fill:#874b3d" d="M116.78,48.11L115.31,48.00L116.73,48.04z"/><path style="fill:#874b3d" d="M163.02,48.22L161.57,48.16L162.99,48.11z"/><path style="fill:#874b3d" d="M118.27,48.21L117.86,48.28L116.84,48.19L116.78,48.11L116.92,48.08z"/><path style="fill:#874b3d" d="M163.60,48.33L163.54,48.25L164.86,48.29z"/><path style="fill:#874b3d" d="M165.69,48.55L165.47,48.42L166.25,48.40z"/><path style="fill:#874b3d" d="M78.62,48.82L77.95,48.94L77.77,48.82L74.31,48.41L75.75,48.43z"/><path style="fill:#874b3d" d="M124.44,48.78L122.88,48.72L122.85,48.64L124.05,48.61z"/><path style="fill:#874b3d" d="M125.92,48.92L124.50,48.86L124.44,48.78L125.87,48.84z"/><path style="fill:#874b3d" d="M127.40,49.01L127.14,49.08L125.98,49.00L125.92,48.92z"/><path style="fill:#874b3d" d="M86.15,49.69L85.47,49.75L81.19,49.32L81.21,49.23L82.74,49.23z"/><path style="fill:#874b3d" d="M135.00,49.65L135.06,49.72L133.40,49.64L132.00,49.50L133.54,49.50z"/><path style="fill:#874b3d" d="M136.54,49.86L135.12,49.80L135.06,49.72L136.50,49.73z"/><path style="fill:#874b3d" d="M138.16,49.96L137.21,50.02L136.59,49.94L136.54,49.86L137.35,49.83z"/><path style="fill:#874b3d" d="M91.52,50.23L94.35,50.63L93.68,50.68L89.22,50.15z"/><path style="fill:#874b3d" d="M99.94,51.25L102.14,51.44L102.36,51.53L103.08,51.57L103.48,51.71L102.97,51.88L102.90,51.79L98.41,51.26L98.88,51.12z"/><path style="fill:#874b3d" d="M181.51,69.12L182.37,69.35L180.07,69.06L180.34,68.90L180.57,69.00z"/><path style="fill:#874b3d" d="M182.72,69.45L182.37,69.35L182.74,69.35z"/><path style="fill:#874b3d" d="M191.48,70.69L191.45,70.79L189.51,70.55L189.51,70.42L190.38,70.47z"/><path style="fill:#874b3d" d="M200.22,71.91L200.22,72.12L198.66,71.90L198.65,71.77z"/><path style="fill:#874b3d" d="M172.53,72.71L172.51,72.80L171.02,72.62L170.80,72.55L171.21,72.40z"/><path style="fill:#874b3d" d="M209.48,73.38L209.46,73.47L209.14,73.51L209.13,73.26z"/><path style="fill:#874b3d" d="M182.35,74.35L182.47,74.49L182.05,74.50L179.05,74.00L179.03,73.92L179.55,73.88z"/><path style="fill:#874b3d" d="M146.73,74.06L146.71,74.14L146.24,74.18L146.24,73.91z"/><path style="fill:#874b3d" d="M219.57,74.86L219.55,74.94L218.74,74.90L215.28,74.36L215.55,74.29z"/><path style="fill:#874b3d" d="M192.14,76.12L191.46,76.11L189.24,75.79L189.24,75.52z"/><path style="fill:#874b3d" d="M122.53,76.43L121.89,76.37L122.45,76.18L122.54,76.21z"/><path style="fill:#874b3d" d="M201.95,77.71L202.22,77.86L201.54,77.86L197.73,77.23L197.71,77.14L198.36,77.11z"/><path style="fill:#874b3d" d="M131.95,78.50L131.93,78.72L129.27,78.13L129.81,77.92z"/><path style="fill:#874b3d" d="M172.13,79.06L172.27,79.19L171.57,79.20L168.30,78.57L168.28,78.49L168.93,78.45z"/><path style="fill:#874b3d" d="M99.16,79.70L99.14,80.06L98.72,80.02L96.94,79.51L96.92,79.43L97.70,79.39z"/><path style="fill:#874b3d" d="M139.48,80.22L140.54,80.56L140.54,80.71L139.98,80.68L138.58,80.36L138.58,80.09z"/><path style="fill:#874b3d" d="M182.21,81.10L182.21,81.25L181.65,81.22L177.93,80.47L178.47,80.33z"/><path style="fill:#874b3d" d="M106.82,81.99L106.80,82.35L105.65,82.11L105.66,81.70z"/><path style="fill:#874b3d" d="M149.28,82.55L149.43,82.70L149.40,82.88L145.67,82.02L146.34,81.82L146.43,81.89z"/><path style="fill:#874b3d" d="M69.70,83.10L70.80,83.46L70.78,83.96L68.40,83.09L69.20,82.89z"/><path style="fill:#874b3d" d="M114.49,84.26L114.48,84.62L111.13,83.62L111.86,83.50L111.95,83.44z"/><path style="fill:#874b3d" d="M158.40,84.71L159.22,85.00L159.22,85.15L158.66,85.12L154.86,84.21L154.84,84.13L155.63,84.10z"/><path style="fill:#874b3d" d="M77.12,85.88L77.10,86.38L74.66,85.52L74.45,85.37L75.35,85.21z"/><path style="fill:#874b3d" d="M122.93,86.74L122.93,87.04L119.82,86.20L119.43,86.02L120.01,85.84z"/><path style="fill:#874b3d" d="M83.96,88.43L83.96,89.05L81.03,87.93L81.96,87.73z"/><path style="fill:#874b3d" d="M131.94,89.27L132.09,89.41L132.07,89.73L128.20,88.61L128.99,88.41z"/><path style="fill:#874b3d" d="M91.62,91.40L91.61,91.89L91.20,91.84L88.41,90.75L88.60,90.62L89.24,90.55z"/><path style="fill:#874b3d" d="M99.13,94.26L99.96,94.64L99.94,95.11L98.19,94.52L96.45,93.81L97.40,93.55z"/><path style="fill:#512e2f" d="M188.82,44.85L188.96,43.43L189.45,43.45L189.36,45.02L189.22,44.99z"/><path style="fill:#512e2f" d="M144.04,46.77L143.26,46.74L143.26,44.51L143.68,44.37L143.90,44.39z"/><path style="fill:#512e2f" d="M198.22,45.40L197.73,45.39L197.70,43.83L197.83,43.77L198.19,43.85z"/><path style="fill:#512e2f" d="M207.60,45.83L207.10,45.80L207.10,44.24L207.59,44.25z"/><path style="fill:#512e2f" d="M95.92,46.53L97.70,79.39L96.92,79.43L96.85,78.93L95.01,46.26L95.43,46.19L95.78,46.28z"/><path style="fill:#512e2f" d="M102.91,46.93L103.08,51.57L102.36,51.53L102.14,51.44L101.99,46.94L102.55,46.79L102.79,46.79z"/><path style="fill:#512e2f" d="M151.19,47.28L151.19,44.91L151.82,44.93L151.86,47.40L151.73,47.41z"/><path style="fill:#512e2f" d="M65.04,47.34L65.45,47.27L66.08,47.34L66.21,48.02L68.63,75.57L69.20,82.89L68.40,83.09L68.31,83.02z"/><path style="fill:#512e2f" d="M160.33,47.95L159.68,47.98L159.65,45.45L160.21,45.38L160.43,45.47z"/><path style="fill:#512e2f" d="M110.47,47.57L111.95,83.44L111.86,83.50L111.13,83.62L111.04,83.55L109.62,48.16L109.51,47.61L110.21,47.46L110.43,47.48z"/><path style="fill:#512e2f" d="M163.71,45.69L163.64,47.80L163.54,48.25L163.02,48.22L162.99,48.11L163.10,47.12L163.15,43.70L163.65,43.71z"/><path style="fill:#512e2f" d="M117.86,48.28L118.27,48.21L118.89,48.29L119.29,60.52L120.01,85.84L119.43,86.02L119.25,85.96L119.15,85.66L117.95,48.55z"/><path style="fill:#512e2f" d="M120.82,45.32L121.37,45.25L121.59,45.33L122.45,76.18L121.89,76.37L121.70,75.98z"/><path style="fill:#512e2f" d="M75.35,85.21L74.45,85.37L74.35,85.30L71.22,48.14L72.18,48.00L72.27,48.03z"/><path style="fill:#512e2f" d="M77.95,48.94L78.62,48.82L79.11,48.82L81.96,87.73L81.03,87.93L80.94,87.85z"/><path style="fill:#512e2f" d="M137.35,49.83L136.54,49.86L136.50,49.73L136.54,46.36L137.31,46.40z"/><path style="fill:#512e2f" d="M86.65,49.89L88.38,76.38L89.24,90.55L88.60,90.62L88.41,90.75L88.20,90.67L85.47,49.75L86.15,49.69L86.52,49.76z"/><path style="fill:#512e2f" d="M128.34,45.86L128.89,45.78L129.11,45.87L129.81,77.92L129.27,78.13L129.05,78.04z"/><path style="fill:#512e2f" d="M93.68,50.68L94.35,50.63L94.83,50.71L94.97,51.25L97.40,93.55L96.45,93.81L96.26,93.76L93.76,50.83z"/><path style="fill:#512e2f" d="M128.08,49.18L128.99,88.41L128.20,88.61L127.97,88.52L127.14,49.08L127.40,49.01L128.03,49.09z"/><path style="fill:#512e2f" d="M215.65,74.01L215.55,74.29L215.28,74.36L215.19,74.28L215.34,70.60L217.26,44.83L217.31,44.65L217.81,44.66z"/><path style="fill:#512e2f" d="M168.93,78.45L168.28,78.49L168.44,66.97L168.93,45.99L169.21,45.92L169.56,46.01z"/><path style="fill:#512e2f" d="M155.90,47.84L155.63,84.10L154.84,84.13L155.09,47.74L155.50,47.67z"/><path style="fill:#512e2f" d="M209.90,150.68L209.87,152.49L208.25,173.71L207.93,173.95L207.73,173.91L207.86,173.59L209.54,150.57z"/><path style="fill:#512e2f" d="M193.82,158.04L192.55,182.06L192.03,182.34L193.33,157.97L193.49,157.81z"/><path style="fill:#512e2f" d="M167.00,161.45L166.94,167.72L166.87,169.42L166.48,185.96L166.34,186.09L165.85,186.24L166.46,161.17z"/><path style="fill:#512e2f" d="M168.96,162.61L168.76,168.22L168.26,168.49L168.43,162.25z"/><path style="fill:#512e2f" d="M175.61,166.27L175.39,172.70L174.79,191.59L174.34,191.84L174.14,191.79L174.26,190.65L175.02,166.00L175.19,165.99z"/><path style="fill:#512e2f" d="M176.45,166.74L176.38,166.81L176.14,172.64L175.64,172.78L175.86,166.85L175.97,166.55L176.13,166.53z"/><path style="fill:#512e2f" d="M146.50,170.28L146.59,195.91L145.99,196.28L145.79,196.21L145.86,169.90L146.02,169.89z"/><path style="fill:#512e2f" d="M77.30,173.64L77.36,175.02L78.57,188.86L79.39,199.00L79.08,199.22L78.63,199.27L76.23,172.60L76.29,172.59z"/><path style="fill:#512e2f" d="M115.73,174.57L115.80,177.44L116.47,194.10L116.62,200.61L116.48,200.74L115.98,200.90L114.81,173.93L114.98,173.92z"/><path style="fill:#512e2f" d="M154.91,175.82L154.99,179.14L154.89,179.36L154.64,202.34L154.01,202.63L154.23,175.28z"/><path style="fill:#512e2f" d="M82.94,179.15L85.02,204.18L84.98,205.66L84.27,205.86L82.07,179.32L82.07,178.23z"/><path style="fill:#512e2f" d="M217.53,176.14L217.26,178.42L216.92,178.61L217.22,173.95L228.15,45.37L228.21,45.18L228.70,45.20z"/><path style="fill:#512e2f" d="M123.13,180.48L123.19,183.89L123.86,207.32L123.60,207.45L123.11,207.61L122.25,179.71z"/><path style="fill:#512e2f" d="M89.26,185.46L90.53,202.84L90.98,210.02L90.18,210.02L89.99,208.08L88.19,184.43L88.25,184.42z"/><path style="fill:#512e2f" d="M130.85,186.43L131.05,186.67L131.57,210.02L130.76,210.02L130.26,186.04z"/><path style="fill:#512e2f" d="M96.11,192.32L96.18,194.24L97.16,210.02L96.22,210.02L95.10,192.63L95.10,191.27z"/><path style="fill:#512e2f" d="M103.50,199.57L104.02,210.02L103.08,210.02L102.44,198.54z"/><path style="fill:#512e2f" d="M163.98,185.06L163.50,209.06L162.92,209.45L162.72,209.38L162.83,207.72L165.66,54.38L165.69,48.55L166.25,48.40L166.60,48.41z"/><path style="fill:#ffffff" d="M110.84,170.71L110.96,171.39L112.17,197.46L112.72,197.99L113.92,199.08L115.67,200.83L115.98,200.90L116.48,200.74L116.62,200.61L116.47,194.10L115.80,177.44L115.73,174.57L117.96,176.36L119.02,203.38L119.16,204.05L122.66,207.26L123.11,207.61L123.60,207.45L123.86,207.32L123.19,183.89L123.13,180.48L123.33,180.52L125.62,182.40L126.46,210.02L111.68,210.02L109.83,170.00L110.02,170.04z"/><path style="fill:#ffffff" d="M91.08,187.24L92.73,210.02L90.98,210.02L90.53,202.84L89.26,185.46z"/><path style="fill:#ffffff" d="M132.87,188.06L133.95,188.99L134.39,210.02L131.57,210.02L131.05,186.67z"/><path style="fill:#ffffff" d="M97.94,194.08L98.20,194.64L99.18,210.02L97.16,210.02L96.18,194.24L96.11,192.32z"/><path style="fill:#ffffff" d="M105.86,201.89L106.30,210.02L104.02,210.02L103.50,199.57z"/><g id="Actor_.0"><g style="stroke:#000000;stroke-width:0.176"><path d="M116.81,44.96L120.78,45.25L121.70,76.32L122.45,76.22"/><path d="M121.70,76.32L122.63,76.54"/><path d="M120.78,45.25L121.56,45.22"/><path d="M129.78,77.95L129.01,78.05L128.32,45.78L124.01,45.48"/><path d="M128.32,45.78L129.11,45.75"/><path d="M129.01,78.05L131.96,78.75"/><path d="M131.82,46.03L136.49,46.36L136.53,49.76"/><path d="M136.49,46.36L137.30,46.33"/><path d="M138.60,80.33L140.59,80.80L140.59,80.50"/><path d="M140.29,46.64L145.38,47.00L146.20,46.96"/><path d="M145.88,196.30L145.79,169.75L146.50,170.22"/><path d="M145.38,47.00L145.50,81.96L146.29,81.84"/><path d="M145.50,81.96L149.49,82.91L149.49,82.60"/><path d="M159.20,84.89L159.20,85.21L154.84,84.18L155.09,47.69L149.53,47.29"/><path d="M154.00,202.62L154.20,175.24L154.91,175.71"/><path d="M155.64,84.05L154.84,84.18"/><path d="M155.09,47.69L155.93,47.65"/><path d="M159.64,48.01L165.74,48.45L162.78,209.46"/><path d="M165.74,48.45L166.59,48.40"/></g><g style="stroke:#000000;stroke-width:0.529"><path d="M122.62,76.26L122.45,76.22L121.56,45.22L117.58,44.93L116.81,44.96L116.91,48.03"/><path d="M124.10,48.67L124.01,45.48L124.80,45.45L129.11,45.75L129.78,77.95L131.96,78.46"/><path d="M131.88,49.43L131.82,46.03L132.62,46.00L137.30,46.33L137.34,49.83"/><path d="M139.53,165.67L141.35,166.85L141.57,192.95L145.88,196.30L146.57,195.95L146.50,170.22L149.40,172.11L149.37,199.01L154.00,202.62L154.70,202.25L154.91,175.71L158.10,177.79L157.78,205.57L162.78,209.46L163.49,209.06L166.59,48.40L160.48,47.97L159.64,48.01L159.20,84.89L155.64,84.05L155.93,47.65L150.36,47.25L149.53,47.29L149.49,82.60L146.29,81.84L146.20,46.96L141.11,46.60L140.29,46.64L140.59,80.50L138.60,80.03"/></g></g><g id="Actor_.1"><g style="stroke:#000000;stroke-width:0.176"><path d="M95.87,46.18L94.97,46.21L91.30,45.89"/><path d="M97.72,79.33L96.86,79.44L94.97,46.21"/><path d="M96.86,79.44L99.24,80.13"/><path d="M97.96,46.48L101.95,46.83L102.87,46.80"/><path d="M102.18,51.49L101.95,46.83"/><path d="M105.21,47.12L109.57,47.51L111.07,83.60L114.52,84.61L114.51,84.21"/><path d="M106.82,81.97L106.84,82.36L105.64,82.01"/><path d="M109.57,47.51L110.51,47.47"/><path d="M111.07,83.60L111.97,83.47"/><path d="M113.14,47.83L117.92,48.25L119.15,85.97L122.93,87.07L122.92,86.65"/><path d="M115.94,200.98L114.81,173.82L115.66,174.48"/><path d="M117.92,48.25L118.88,48.21"/><path d="M120.07,85.83L119.15,85.97"/><path d="M123.12,207.68L122.21,179.64L123.06,180.31"/><path d="M121.84,48.60L127.10,49.07L128.01,88.56L128.95,88.41"/><path d="M127.10,49.07L128.09,49.02"/><path d="M128.01,88.56L132.16,89.78L132.16,89.34"/><path d="M130.78,210.00L130.23,185.97L131.09,186.65"/><path d="M131.43,49.45L137.26,49.97L139.18,210.00"/><path d="M137.26,49.97L138.27,49.91"/></g><g style="stroke:#000000;stroke-width:0.529"><path d="M99.22,79.76L97.72,79.33L95.87,46.18L92.18,45.85L91.30,45.89L91.56,50.26"/><path d="M98.21,51.14L97.96,46.48L98.87,46.44L102.87,46.80L103.10,51.60"/><path d="M105.62,81.63L106.82,81.97L105.21,47.12L106.14,47.08L110.51,47.47L111.97,83.47L114.51,84.21L113.14,47.83L114.09,47.78L118.88,48.21L120.07,85.83L122.92,86.65L121.84,48.60L122.81,48.55L128.09,49.02L128.95,88.41L132.16,89.34L131.43,49.45L132.43,49.40L138.27,49.91L140.02,210.00"/><path d="M126.43,210.00L125.64,182.35L123.06,180.31L123.91,207.29L123.13,207.68L119.02,203.86L117.98,176.31L115.66,174.48L116.72,200.62L115.94,200.98L112.15,197.44L110.91,170.74L109.81,169.87"/><path d="M134.36,210.00L133.97,188.92L131.10,186.65L131.60,210.00"/></g></g><g id="Actor_.2"><g style="stroke:#000000;stroke-width:0.176"><path d="M139.13,44.15L143.31,44.40L143.32,46.76"/><path d="M143.31,44.40L143.99,44.38"/><path d="M146.75,74.02L146.75,74.24L146.27,74.14"/><path d="M146.70,44.60L151.20,44.87L151.89,44.84"/><path d="M151.20,44.87L151.19,47.31"/><path d="M154.85,45.09L159.71,45.38L159.68,48.01"/><path d="M159.71,45.38L160.41,45.35"/><path d="M163.65,45.61L168.91,45.92L169.62,45.89"/><path d="M165.86,186.30L166.41,161.11L167.02,161.45"/><path d="M168.89,78.41L168.20,78.51L168.91,45.92"/><path d="M168.22,78.51L172.32,79.33L172.33,79.09"/><path d="M173.19,46.18L178.90,46.52L177.81,80.43L182.27,81.32L182.28,81.06"/><path d="M174.20,191.87L175.05,165.91L175.65,166.26"/><path d="M177.81,80.43L178.50,80.31"/><path d="M178.90,46.52L179.62,46.48"/><path d="M183.16,197.85L189.79,47.17L183.56,46.80"/><path d="M189.79,47.17L190.51,47.13"/></g><g style="stroke:#000000;stroke-width:0.529"><path d="M139.49,80.24L139.13,44.15L139.81,44.13L143.99,44.38L144.01,46.80"/><path d="M141.37,169.94L140.38,169.27L140.34,166.20"/><path d="M149.39,175.30L146.94,173.66L146.94,170.50"/><path d="M146.27,73.92L146.75,74.02L146.70,44.60L147.39,44.58L151.89,44.84L151.88,47.36"/><path d="M154.89,178.97L158.06,181.08"/><path d="M154.83,47.57L154.85,45.09L155.55,45.06L160.41,45.35L160.37,47.98"/><path d="M163.61,48.19L163.65,45.61L164.36,45.58L169.62,45.89L168.89,78.41L172.33,79.09L173.19,46.18L173.90,46.15L179.62,46.48L178.50,80.31L182.28,81.06L183.56,46.80L184.28,46.76L190.51,47.13L183.77,197.50L183.16,197.85L178.05,194.44L179.03,168.14L175.65,166.26L174.81,191.54L174.20,191.87L169.45,188.69L170.12,163.17L167.02,161.45L166.47,185.99L165.86,186.30L163.95,185.02"/></g></g><g id="Actor_.3"><g style="stroke:#000000;stroke-width:0.176"><path d="M158.83,43.44L163.14,43.66L163.07,48.15"/><path d="M163.14,43.66L163.74,43.64"/><path d="M166.62,43.84L171.24,44.07L170.55,72.51L172.49,72.84"/><path d="M168.23,168.48L168.38,162.21"/><path d="M170.55,72.51L171.14,72.43"/><path d="M171.24,44.07L171.85,44.05"/><path d="M174.98,44.26L179.94,44.52L178.95,73.96L179.55,73.87"/><path d="M175.65,172.82L175.87,166.38"/><path d="M178.95,73.96L182.52,74.57"/><path d="M179.94,44.52L180.55,44.49"/><path d="M183.96,44.72L189.30,45.00L189.92,44.97"/><path d="M192.16,76.03L192.15,76.22L189.23,75.72"/><path d="M189.21,47.05L189.30,45.00"/><path d="M192.00,182.38L193.33,157.73L193.86,157.99"/><path d="M198.30,77.08L197.70,77.18L199.41,45.51L193.64,45.22"/><path d="M197.70,77.18L202.20,77.95L202.21,77.75"/><path d="M199.41,45.51L200.03,45.48"/><path d="M201.03,187.67L210.36,46.07L204.10,45.75"/><path d="M210.98,46.04L210.36,46.07"/></g><g style="stroke:#000000;stroke-width:0.529"><path d="M158.81,45.25L158.83,43.44L159.43,43.42L163.74,43.64L163.71,45.61"/><path d="M168.91,162.50L168.77,168.23L168.23,168.48L166.88,167.69"/><path d="M172.50,72.66L171.14,72.43L171.85,44.05L167.23,43.81L166.62,43.84L166.58,45.71"/><path d="M174.92,46.21L174.98,44.26L175.59,44.24L180.55,44.49L179.55,73.87L182.53,74.38"/><path d="M176.39,166.67L176.19,172.57L175.65,172.82L175.44,172.70"/><path d="M189.83,47.09L189.92,44.97L184.58,44.70L183.96,44.72L183.88,46.78"/><path d="M189.24,75.53L192.16,76.03L193.64,45.22L194.26,45.19L200.03,45.48L198.30,77.08L202.21,77.75L204.10,45.75L204.72,45.72L210.98,46.04L201.58,187.36L201.03,187.67L195.88,184.66L197.36,159.69L193.86,157.99L192.54,182.09L192.00,182.38L187.19,179.57L188.35,155.31L185.72,154.03"/></g></g><g id="Actor_.4"><g style="stroke:#000000;stroke-width:0.176"><path d="M61.87,46.95L65.08,47.33L68.26,83.03L70.85,84.02L70.80,83.49"/><path d="M65.08,47.33L66.13,47.29"/><path d="M68.26,83.03L69.26,82.91"/><path d="M67.71,47.64L71.23,48.06L74.31,85.35L75.33,85.21"/><path d="M71.23,48.06L72.31,48.01"/><path d="M74.12,48.40L77.99,48.85L79.10,48.80"/><path d="M74.31,85.35L77.14,86.43L77.09,85.88"/><path d="M78.61,199.37L76.21,172.42L77.20,173.41"/><path d="M83.99,88.49L84.03,89.07L80.93,87.88L77.99,48.85"/><path d="M80.93,87.88L81.99,87.73"/><path d="M81.17,49.23L85.45,49.73L86.60,49.68"/><path d="M84.25,205.94L81.96,178.13L82.97,179.13"/><path d="M89.30,90.50L88.21,90.67L85.45,49.73"/><path d="M90.12,210.00L88.19,184.32L89.22,185.34"/><path d="M88.21,90.67L91.65,91.98L91.60,91.37"/><path d="M88.97,50.14L93.73,50.71L96.26,93.75L100.06,95.20L100.02,94.56"/><path d="M94.92,50.65L93.73,50.71"/><path d="M96.25,210.00L94.98,191.06L96.02,192.10"/><path d="M96.26,93.75L97.38,93.56"/><path d="M97.66,51.17L102.98,51.79L110.69,210.00"/><path d="M103.07,210.00L102.39,198.43L103.45,199.48"/><path d="M102.98,51.79L104.20,51.73"/></g><g style="stroke:#000000;stroke-width:0.529"><path d="M87.73,210.00L86.87,208.99L84.63,180.78L82.97,179.13L85.12,205.55L84.25,205.94L81.03,202.19L78.67,174.87L77.20,173.41L79.45,199.01L78.61,199.37L75.62,195.89L61.87,46.95L62.90,46.92L66.13,47.29L69.26,82.91L70.80,83.49L67.71,47.64L68.77,47.60L72.31,48.01L75.33,85.21L77.09,85.88L74.12,48.40L75.21,48.35L79.10,48.80L81.99,87.73L83.99,88.49L81.17,49.23L82.30,49.18L86.60,49.68L89.30,90.50L91.60,91.37L88.97,50.14L90.14,50.09L94.92,50.65L97.38,93.56L100.02,94.56L97.66,51.17L98.86,51.11L104.20,51.73L111.71,210.00"/><path d="M91.05,210.00L89.22,185.34L91.09,187.21L92.73,210.00"/><path d="M97.21,210.00L96.02,192.10L98.15,194.21L99.15,210.00"/><path d="M104.05,210.00L103.45,199.48L105.86,201.88L106.30,210.00"/></g></g><g id="Actor_.5"><g style="stroke:#000000;stroke-width:0.176"><path d="M176.34,42.80L180.72,43.00L179.83,69.01L180.36,68.94"/><path d="M179.83,69.01L182.72,69.45"/><path d="M180.72,43.00L181.26,42.98"/><path d="M184.26,43.16L188.94,43.37L188.87,44.91"/><path d="M188.94,43.37L189.48,43.35"/><path d="M191.45,70.61L191.44,70.76L189.46,70.47"/><path d="M192.72,43.54L197.72,43.76L197.64,45.36"/><path d="M197.72,43.76L198.27,43.74"/><path d="M198.58,71.84L200.18,72.08L200.19,71.93"/><path d="M207.04,45.84L207.14,44.18L201.77,43.94"/><path d="M207.14,44.18L207.68,44.16"/><path d="M207.80,173.96L209.52,150.49L209.98,150.69"/><path d="M209.15,73.44L209.54,73.50L209.55,73.34"/><path d="M211.49,44.38L217.25,44.63L215.08,74.34L215.61,74.25"/><path d="M215.08,74.34L219.58,75.02L219.59,74.85"/><path d="M216.84,178.66L228.15,45.12L221.93,44.84"/><path d="M217.80,44.61L217.25,44.63"/><path d="M228.15,45.12L228.69,45.09"/></g><g style="stroke:#000000;stroke-width:0.529"><path d="M182.72,69.30L180.36,68.94L181.26,42.98L176.87,42.78L176.34,42.80L176.29,44.27"/><path d="M189.41,44.94L189.48,43.35L184.80,43.14L184.26,43.16L184.20,44.71"/><path d="M187.95,163.64L187.10,163.19L187.49,154.89"/><path d="M198.18,45.39L198.27,43.74L193.26,43.51L192.72,43.54L191.45,70.61L189.47,70.32"/><path d="M196.85,168.27L194.80,167.20L195.28,158.68"/><path d="M198.59,71.69L200.19,71.93L201.77,43.94L202.32,43.92L207.68,44.16L207.57,45.86"/><path d="M209.16,73.28L209.55,73.34L211.49,44.38L212.03,44.35L217.80,44.61L215.61,74.25L219.59,74.85L221.93,44.84L222.47,44.82L228.69,45.09L217.32,178.39L216.84,178.66L211.69,175.99L213.55,152.22L209.99,150.69L208.29,173.70L207.80,173.96L202.98,171.45L204.53,148.33L204.19,148.19"/></g></g><g/><g/><g><g/><g><path style="stroke:#000000;stroke-width:0.125;fill:#ffffff" d="M246.01,11.73L264.72,11.73L264.72,26.97L246.01,26.97z"/><text xml:space="preserve" fill="#000000" stroke-width="0" x="247.92" y="22.21" font-size="8.86" opacity="1.00" font-family="MS Shell Dlg">Exit</text></g></g><g><g/><g><path style="stroke:#000000;stroke-width:0.125;fill:#ffffff" d="M91.39,21.80L193.85,21.80L193.85,31.96L91.39,31.96z"/><text xml:space="preserve" fill="#000000" stroke-width="0" x="92.66" y="28.78" font-size="6.21" opacity="1.00" font-family="MS Shell Dlg">Custom cut copper thermal interface</text></g></g><g/><g id="paperID" visibility="hidden" opacity="0.00" transform="scale(0.000100)"><path style="stroke:#000000;stroke-width:0.500;fill:#e6e6e6;fill-rule:evenodd" d="M-2000.00,-2000.00L2297.00,-2000.00L2297.00,2210.00L-2000.00,2210.00zM0.00,0.00L297.00,0.00L297.00,210.00L0.00,210.00z"/><path style="fill:#000000;fill-opacity:0.118" d="M3.00,210.00L297.00,210.00L297.00,3.00L300.00,3.00L300.00,213.00L3.00,213.00z"/></g><g id="hotspot.0" onmouseover="ShowHotSpot(evt,'0')" onmouseout="HideHotSpot(evt,'0')" onmousemove="ShowToolTip(evt,'0',&quot;2D Text 3&quot;)" opacity="0"><a xlink:href="main.svg"><path style="fill:#00ff00;fill-rule:evenodd" d="M245.87,11.65L264.84,11.60L264.84,27.11L245.87,27.06z"/></a></g><g id="hotspot.1" onmouseover="ShowHotSpot(evt,'1')" onmouseout="HideHotSpot(evt,'1')" onmousemove="ShowToolTip(evt,'1',&quot;Hotspot 1&quot;)" opacity="0"><path style="fill:#ff8000;fill-rule:evenodd" d="M181.25,43.04L180.40,68.90L180.56,69.00L182.72,69.31L183.53,48.20L183.63,46.82L183.79,46.71L184.04,44.81L184.19,44.69L184.29,43.18L188.77,43.32L189.45,43.45L189.39,44.97L189.85,45.06L189.93,47.13L190.53,47.22L189.80,62.40L189.53,70.38L191.48,70.64L192.75,43.58L197.78,43.72L198.18,43.86L198.26,45.38L199.67,45.46L199.92,45.60L199.93,47.80L198.81,67.51L198.67,71.72L200.20,71.86L201.76,43.99L206.78,44.13L207.59,44.25L207.67,45.92L210.27,46.01L210.95,46.13L209.20,73.30L209.46,73.34L209.60,72.79L211.47,44.69L211.58,44.40L217.81,44.66L215.59,74.27L219.55,74.82L221.92,44.93L228.01,45.07L228.70,45.20L217.53,176.14L217.26,178.42L217.01,178.59L216.73,178.67L211.71,176.00L213.51,152.29L210.01,150.68L208.25,173.71L208.00,173.88L207.72,173.96L203.01,171.52L204.51,148.39L204.36,148.24L204.19,148.26L201.54,187.43L201.38,187.54L200.72,187.53L195.99,184.74L196.12,180.40L196.83,168.30L194.91,167.27L195.04,162.52L195.24,158.75L194.00,158.06L193.84,158.07L192.55,182.07L192.23,182.29L191.74,182.27L187.25,179.63L187.52,172.33L187.97,163.71L187.12,163.24L187.43,154.86L185.94,154.17L185.77,154.18L185.68,155.44L183.81,197.38L183.35,197.75L182.99,197.75L178.15,194.51L178.15,192.13L178.97,168.15L176.67,166.81L176.37,166.81L176.14,172.64L175.83,172.76L175.47,172.74L174.79,191.59L174.63,191.69L174.12,191.84L169.51,188.77L169.64,180.40L170.09,163.20L169.14,162.63L168.97,162.64L168.76,168.22L168.44,168.45L168.07,168.45L167.00,167.75L166.87,169.42L166.48,185.96L166.16,186.19L165.65,186.19L163.99,185.10L163.50,209.06L162.93,209.44L162.71,209.42L157.87,205.66L157.86,199.39L157.99,181.07L155.17,179.17L155.01,179.18L154.89,179.34L154.77,196.30L154.64,202.34L154.19,202.58L153.84,202.58L152.89,201.76L149.39,199.08L149.39,175.29L146.98,173.68L146.84,170.45L146.58,170.30L146.59,195.91L145.99,196.27L145.78,196.25L141.60,193.03L141.33,169.92L140.53,169.37L140.38,168.98L140.25,166.15L139.53,165.75L139.99,209.88L134.43,209.88L134.34,208.08L133.95,188.99L132.87,188.06L131.11,186.71L131.25,193.16L131.53,209.88L126.50,209.88L126.41,208.75L125.62,182.40L123.32,180.50L123.15,180.52L123.19,183.89L123.86,207.32L123.42,207.55L122.93,207.54L119.96,204.72L119.16,204.05L119.02,203.38L117.96,176.36L115.80,174.60L115.80,177.44L116.47,194.10L116.62,200.61L116.30,200.83L115.67,200.82L112.17,197.46L110.96,171.39L110.84,170.71L110.01,170.02L109.84,170.03L111.36,202.17L111.64,209.88L106.34,209.88L105.86,201.89L103.52,199.61L103.70,203.51L103.98,209.88L99.22,209.87L99.13,209.43L98.20,194.64L97.94,194.08L96.18,192.34L96.18,194.24L96.98,206.33L97.12,209.88L92.77,209.88L91.08,187.24L89.27,185.50L90.80,206.47L90.94,209.88L87.58,209.82L86.89,209.03L84.63,180.79L83.00,179.18L84.89,202.57L85.04,205.59L84.58,205.81L84.09,205.80L81.11,202.31L80.99,201.63L78.71,175.01L78.19,174.33L77.37,173.66L77.36,175.02L78.57,188.86L79.39,199.00L79.08,199.22L78.44,199.21L75.76,196.11L75.61,195.72L61.88,47.07L62.12,46.94L63.12,46.95L66.08,47.34L66.21,48.02L69.30,82.97L70.37,83.38L70.78,83.42L67.82,48.69L67.77,47.75L68.89,47.62L72.26,48.02L75.33,85.13L75.74,85.39L77.10,85.83L74.27,50.17L74.22,48.42L75.75,48.43L79.12,48.82L81.80,84.98L82.06,87.80L83.54,88.35L83.94,88.40L81.21,49.23L82.74,49.23L86.10,49.63L86.65,49.89L89.28,90.53L91.35,91.31L91.61,91.31L89.01,50.17L91.48,50.22L91.33,46.26L91.29,46.01L92.28,45.87L95.37,46.14L95.76,46.28L95.92,46.53L97.74,79.38L98.59,79.61L99.14,79.66L99.00,75.44L97.79,53.26L97.74,51.24L98.20,51.16L98.01,46.54L99.94,46.54L102.78,46.80L102.91,46.93L103.12,51.56L104.11,51.79L104.25,52.04L105.32,74.77L105.68,81.66L106.79,81.94L105.32,49.10L105.27,47.21L107.60,47.22L110.43,47.48L110.56,48.16L111.63,74.63L112.03,83.50L114.47,84.21L113.24,50.17L113.20,47.88L115.13,47.89L116.89,48.06L116.82,45.06L121.32,45.19L121.58,45.34L122.38,73.15L122.52,76.17L122.38,67.11L121.98,53.00L121.93,48.69L122.80,48.57L124.00,48.61L124.09,45.60L124.34,45.46L128.84,45.73L129.10,45.87L129.77,76.92L129.90,78.00L131.92,78.45L131.48,49.51L131.79,49.40L131.88,46.14L132.61,46.02L137.31,46.40L137.38,49.82L138.12,49.89L138.26,50.02L138.60,80.05L139.45,80.20L139.13,44.25L141.87,44.26L143.89,44.39L144.10,46.86L145.91,46.94L146.17,47.08L146.26,73.87L146.43,73.99L146.71,74.01L146.79,44.66L148.72,44.66L151.82,44.92L151.90,47.40L154.78,47.53L154.86,45.19L155.59,45.08L158.81,45.25L158.89,43.45L160.01,43.45L163.65,43.72L163.73,45.66L166.60,45.65L166.68,43.85L171.84,44.12L171.39,61.60L171.26,72.39L171.42,72.50L172.51,72.67L173.18,47.39L173.27,46.27L174.93,46.19L175.06,44.30L176.27,44.32L176.36,42.91L179.63,42.92z"/></g><g id="ToolTip" visibility="hidden" opacity="0" transform="translate(0,0)"><rect id="ToolTipShadow" opacity="0.20" fill="black" stroke="none" x="0" y="0" width="30" height="8"/><rect id="ToolTipBG" fill="#ffffe1" stroke="black" x="0" y="0" width="30" height="8"/><text xml:space="preserve" id="ToolTipText" fill="black" x="0" y="0" width="30" height="8">tooltip</text></g></g></svg>
