<?xml version="1.0" encoding="UTF-8" standalone="no"?>
<svg xmlns="http://www.w3.org/2000/svg" xmlns:xlink="http://www.w3.org/1999/xlink" width="297.000mm" height="210.000mm" viewBox="0.000000 0.000000 297.000000 210.000000" stroke-linejoin="round" stroke-linecap="round" fill="none" fill-rule="evenodd"><desc>Composer Export</desc><script type="text/ecmascript"><![CDATA[
if(typeof(top) != "undefined")
{
	top.ShowPaper = ShowPaper;
}
function ShowHotSpot(evt,hotspotid)
{
	var svgDocument = evt.target.ownerDocument;
	var strId = "hotspot."+hotspotid;
	var hotspot = svgDocument.getElementById(strId);
	if(hotspot)
		hotspot.setAttribute("opacity",".5");
}
function HideHotSpot(evt,hotspotid)
{
	var svgDocument = evt.target.ownerDocument;
	var strId = "hotspot."+hotspotid;
	var hotspot = svgDocument.getElementById(strId);
	if(hotspot)
		hotspot.setAttribute("opacity","0");

	var toolTip = svgDocument.getElementById('ToolTip');
	if(toolTip)
		toolTip.setAttribute("visibility","hidden");
}
function ShowToolTip(evt,hotspotid,strTooltip)
{
	if(strTooltip=="")
	return;

	// change text
	var svgDocument = evt.target.ownerDocument;
	var tiptext = svgDocument.getElementById('ToolTipText');
	if( !tiptext )
	return;
	tiptext.firstChild.nodeValue = " " + strTooltip + "  " ;

	// show tooltip before, else some refresh issue

	var toolTip = svgDocument.getElementById('ToolTip');
	if(!toolTip)
	return;

	toolTip.setAttribute("visibility","visible");
	toolTip.setAttribute("opacity",".95");

	// move tooltip
	// get viewbox

	var root = svgDocument.documentElement;
	var vbox = (root.getAttribute("viewBox")).split(' ');
	var x0 = parseFloat(vbox[0]);
	var y0 = parseFloat(vbox[1]);
	var vboxW = parseFloat(vbox[2]);
	var vboxH = parseFloat(vbox[3]);

	// get default width of svg

	var strW = root.getAttribute("width");
	var svgW = parseFloat(strW);
	if(strW.indexOf('mm') != -1)
	svgW *= 3.779;

	var strH = root.getAttribute("height");
	var svgH = parseFloat(strH);
	if(strH.indexOf('mm') != -1)
	svgH *= 3.779;  	// 96 dpi  -> 96/25.4 = 3.779

	// update the viewbox / width / height if svg is embedded in html with zoom fit all
	var realx0 = x0;
	var realy0 = y0;
	var realvboxW = vboxW;
	var realvboxH = vboxH;
	var realsvgW = svgW;
	var realsvgH = svgH;

	if ((typeof(top) == "undefined") || (typeof(top.svgctl1) != "undefined")) // embedded in html
	{
		// get window size in pxl

		svgW = window.innerWidth;
		svgH = window.innerHeight;

		// calculate real viewbox

		realsvgW = svgW;
		realsvgH = svgH;
		if((svgW / svgH) > (vboxW / vboxH))
		{
			realvboxW = (vboxH * svgW) / svgH;
			realvboxH = vboxH;
			realx0 = x0 - (realvboxW - vboxW)/2 ;
		}
		else
		{
			realvboxH = (vboxW * svgH) / svgW;
			realvboxW = vboxW;
			realy0 = y0 - (realvboxH - vboxH)/2 ;
		}
	}

	// get user zoom/pan

	var newScale = root.currentScale;
	var translation = root.currentTranslate;

	// transform pxl to user unit

	var xPos = (((evt.clientX+10- translation.x)/newScale) * realvboxW)/realsvgW  + realx0 ;
	var yPos = (((evt.clientY+5- translation.y)/newScale) * realvboxH)/ realsvgH  + realy0 ;
	var scaleForWidth = ( (1 / newScale) * realvboxH) / realsvgH;

	// move tooltip

	toolTip.setAttribute("transform", "translate(" + xPos + "," + yPos + ")" );

	// resize tooltip

	var fontsize = 12;
	tiptext.setAttribute("font-size",fontsize*scaleForWidth);
	tiptext.setAttribute("y", fontsize*scaleForWidth);
	var tipBG = svgDocument.getElementById('ToolTipBG');
	var outline = tiptext.getBBox();
	if(tipBG)
	{
		tipBG.setAttribute("stroke-width", 1*scaleForWidth);
		tipBG.setAttribute("width", Number(outline.width) );
		tipBG.setAttribute("height", Number(outline.height) + fontsize*.5*scaleForWidth );
	}
	var ToolTipShadow = svgDocument.getElementById('ToolTipShadow');
	if(ToolTipShadow)
	{
		ToolTipShadow.setAttribute("width", Number(outline.width) );
		ToolTipShadow.setAttribute("height", Number(outline.height) + fontsize*.5*scaleForWidth );
		ToolTipShadow.setAttribute("x", 3*scaleForWidth);
		ToolTipShadow.setAttribute("y", 3*scaleForWidth);
	}
}
function ShowPaper()
{
  var svgDocument = getDocument();
  var paper = svgDocument.getElementById("paperID");
  if(paper)
  {
    paper.setAttribute("transform","scale(1)");
    paper.setAttribute("opacity","1");
    paper.setAttribute("visibility","visible");
  }
  var svg = svgDocument.getRootElement();
  if(svg)
  {
    svg.setAttribute("width","307.000mm");
    svg.setAttribute("height","220.000mm");
    svg.setAttribute("viewBox","-5.000000 -5.000000 307.000000 220.000000");
  }
}
]]></script><defs/><g><path style="fill:#ffffff" d="M296.96,210.01L0.04,210.01L0.04,0.04L296.96,0.04z"/><path style="fill:#a4a4a4" d="M174.53,71.68L192.53,76.38L193.64,76.58L193.73,76.64L225.32,82.70L226.19,82.94L226.03,83.08L193.34,76.78L192.75,76.79L192.68,76.88L192.32,77.11L192.03,77.30L191.78,77.51L191.48,77.82L191.33,77.90L191.09,78.32L190.84,78.58L190.69,78.64L189.84,78.52L188.87,78.80L187.70,79.39L187.14,80.32L187.18,81.84L187.06,81.82L186.81,81.58L186.56,81.31L186.37,81.03L186.49,79.73L186.18,79.72L185.43,80.09L185.31,80.12L161.94,76.90L160.45,76.64L158.75,76.19L157.78,75.81L157.06,75.42L156.94,77.27L156.27,76.73L156.38,74.91L156.12,74.76L155.92,74.30L155.79,74.05L156.26,73.21L157.28,72.48L159.30,71.81L161.31,71.41L163.60,71.14L170.36,71.14z"/><path style="fill:#a4a4a4" d="M107.73,160.91L111.09,161.45L113.64,162.26L124.79,166.95L124.66,167.40L124.46,168.26L124.33,168.94L124.21,169.73L124.07,170.40L124.07,171.34L124.07,172.28L124.07,173.22L124.08,174.03L123.69,174.22L123.14,174.57L122.83,174.74L122.48,174.74L122.46,174.83L122.37,174.95L122.13,175.10L121.80,175.14L121.46,175.37L121.22,175.41L96.52,170.40L94.88,169.89L93.49,169.23L93.28,169.21L92.55,168.69L92.36,168.65L91.61,168.02L91.48,169.74L91.20,169.39L91.09,169.07L90.97,167.05L90.88,166.91L90.78,165.52L91.56,164.26L93.04,163.19L94.92,162.25L97.07,161.58L99.90,161.04L102.58,160.78L106.26,160.78z"/><path style="fill:#242441" d="M161.17,74.08L161.45,73.56L162.62,73.01L162.50,74.86L162.33,75.02L161.75,74.77z"/><path style="fill:#242441" d="M96.70,165.79L97.26,164.86L98.28,164.13L98.61,164.08L98.65,165.95L98.28,166.15L97.16,166.93L96.84,166.56z"/><path style="fill:#3e3e5b" d="M163.15,74.69L162.50,74.86L162.62,73.01L163.16,72.88z"/><path style="fill:#3e3e5b" d="M99.35,165.71L98.65,165.95L98.61,164.08L99.28,163.82z"/><path style="fill:#aeaeae" d="M157.78,75.81L157.77,77.65L156.94,77.27L157.06,75.42z"/><path style="fill:#d4d4d8" d="M121.22,175.41L121.25,175.64L121.25,176.19L121.25,177.14L121.21,177.37L117.95,176.77L96.98,172.47L96.46,172.30L96.52,170.40z"/><path style="fill:#e6e7e9" d="M121.63,177.16L121.21,177.37L121.25,177.14L121.37,177.00L121.47,177.00z"/><path style="fill:#545471" d="M163.68,74.56L163.15,74.69L163.16,72.88L163.69,72.74z"/><path style="fill:#545471" d="M100.01,165.44L99.35,165.71L99.28,163.82L99.76,163.58L99.99,163.58z"/><path style="fill:#b9b9b9" d="M158.75,76.19L158.72,78.04L157.77,77.65L157.78,75.81z"/><path style="fill:#ededf0" d="M121.90,177.01L121.63,177.16L121.47,177.00L121.51,176.86L121.75,176.47z"/><path style="fill:#aeaeae" d="M190.69,78.64L190.57,78.98L190.42,79.04L189.40,79.06L188.07,79.61L187.51,80.54L187.72,82.37L187.63,82.39L187.18,81.84L187.14,80.32L187.70,79.39L188.87,78.80L189.84,78.52z"/><path style="fill:#f5f5f8" d="M122.04,176.71L121.90,177.01L121.75,176.47L122.03,176.32z"/><path style="fill:#c0c1c3" d="M160.45,76.64L160.45,78.47L158.72,78.04L158.75,76.19z"/><path style="fill:#c5c6ce" d="M161.94,76.90L161.93,78.73L160.54,78.54L160.45,78.47L160.45,76.64z"/><path style="fill:#5a5b82" d="M163.82,74.56L163.68,74.56L163.69,72.74L163.82,72.73z"/><path style="fill:#5a5b82" d="M100.13,165.41L100.01,165.44L99.99,163.58L100.11,163.57z"/><path style="fill:#b9b9b9" d="M187.51,80.54L188.07,79.61L189.40,79.06L190.42,79.04L190.28,79.29L189.53,79.33L188.59,79.73L187.97,80.60L187.96,81.76L188.25,82.92L187.98,82.80L187.72,82.37z"/><path style="fill:#6a6a8d" d="M164.37,74.43L164.27,74.51L163.82,74.56L163.82,72.73L164.33,72.70z"/><path style="fill:#6a6a8d" d="M100.69,165.31L100.61,165.39L100.13,165.41L100.11,163.57L100.30,163.44L100.65,163.44z"/><path style="fill:#717195" d="M164.49,74.43L164.37,74.43L164.33,72.70L164.50,72.59z"/><path style="fill:#717195" d="M100.93,165.28L100.69,165.31L100.65,163.44L100.89,163.40z"/><path style="fill:#cacbd7" d="M122.02,175.77L121.81,175.83L121.62,176.28L121.45,176.46L121.37,177.00L121.25,177.14L121.25,176.19L121.53,175.68L122.03,175.42z"/><path style="fill:#7d7d9d" d="M164.90,74.44L164.49,74.43L164.50,72.59L164.90,72.59z"/><path style="fill:#7d7d9d" d="M101.36,165.17L100.93,165.28L100.89,163.40L100.98,163.32L101.33,163.31z"/><path style="fill:#ffffff" d="M104.56,164.99L106.97,165.14L107.10,165.15L107.21,165.18L107.39,165.28L107.63,165.29L108.05,165.41L108.99,165.68L109.94,166.07L110.32,166.23L110.73,166.64L110.83,166.89L109.98,167.50L108.77,168.03L107.15,168.44L105.27,168.70L102.36,168.70L101.01,168.57L99.26,168.17L97.79,167.50L97.16,166.93L98.28,166.15L98.65,165.95L99.35,165.71L100.01,165.44L100.13,165.41L100.61,165.39L100.69,165.31L100.93,165.28L101.36,165.17L101.73,165.14L102.05,165.09L102.14,165.01L103.08,165.00L103.89,165.01z"/><path style="fill:#ffffff" d="M124.21,174.56L123.87,174.94L123.49,175.62L123.36,175.76L123.22,175.89L123.09,176.03L122.96,176.16L122.04,176.71L122.03,176.32L122.32,176.05L122.43,175.65L122.57,175.24L122.79,175.06L122.79,174.96L122.84,174.84L123.29,174.75L123.36,174.59L123.82,174.34L124.14,174.29z"/><path style="fill:#d4d4d8" d="M185.31,80.12L185.35,80.92L185.35,81.58L185.29,81.98L162.70,78.93L162.02,78.80L161.93,78.73L161.94,76.90z"/><path style="fill:#d4d4d8" d="M107.39,165.28L107.21,165.18L107.24,163.31L107.37,163.31z"/><path style="fill:#c0c1c3" d="M187.97,80.60L188.59,79.73L189.53,79.33L190.28,79.29L190.13,79.55L188.85,80.00L188.36,80.85L188.36,82.30L188.67,82.93L188.63,83.16L188.39,83.11L188.25,82.92L187.96,81.76z"/><path style="fill:#c5c6ce" d="M186.02,80.77L185.98,81.29L185.64,81.20L185.81,81.47L185.73,82.15L185.59,82.10L185.35,81.58L185.35,80.92L185.64,80.96L185.71,80.48z"/><path style="fill:#c5c6ce" d="M189.88,79.98L189.53,80.00L188.84,80.52L188.45,81.49L188.72,82.79L188.67,82.93L188.36,82.30L188.36,80.85L188.85,80.00L190.13,79.55z"/><path style="fill:#c5c6ce" d="M122.16,175.37L122.03,175.42L121.53,175.68L121.25,176.19L121.25,175.64L121.46,175.37L121.80,175.14L122.13,175.10z"/><path style="fill:#8c8ca8" d="M165.19,74.33L164.90,74.44L164.90,72.59L165.29,72.58z"/><path style="fill:#8c8ca8" d="M101.73,165.14L101.36,165.17L101.33,163.31L101.74,163.18z"/><path style="fill:#9899b1" d="M165.56,74.29L165.19,74.33L165.29,72.58L165.48,72.46L165.70,72.46z"/><path style="fill:#9899b1" d="M102.14,165.01L102.05,165.09L101.73,165.14L101.74,163.18L102.13,163.17z"/><path style="fill:#a5a5ba" d="M166.37,74.29L165.56,74.29L165.70,72.46L166.37,72.46z"/><path style="fill:#a5a5ba" d="M218.47,95.47L221.18,95.95L221.30,96.77L188.18,90.03L188.09,89.82L188.04,89.23z"/><path style="fill:#a5a5ba" d="M103.08,165.00L102.14,165.01L102.13,163.17L103.08,163.05z"/><path style="fill:#b5b5c4" d="M167.04,74.29L166.37,74.29L166.37,72.46L167.18,72.46z"/><path style="fill:#b5b5c4" d="M103.89,165.01L103.08,165.00L103.08,163.05L103.88,163.04z"/><path style="fill:#b5b5c4" d="M158.69,183.57L158.81,184.39L124.40,174.07L124.19,174.07L124.08,174.03L124.07,173.22L124.39,173.27z"/><path style="fill:#dedfe1" d="M122.29,175.33L122.16,175.37L122.13,175.10L122.37,174.95z"/><path style="fill:#dedfe1" d="M121.51,176.86L121.47,177.00L121.37,177.00L121.45,176.46z"/><path style="fill:#3d3d6d" d="M126.73,178.22L127.13,178.30L127.54,178.34L128.08,178.63L128.47,178.71L128.88,178.74L129.82,179.17L130.22,179.24L130.63,179.28L131.17,179.57L131.57,179.65L131.97,179.68L132.91,180.11L133.32,180.18L134.26,180.51L134.66,180.59L135.06,180.62L135.60,180.91L136.00,181.02L136.05,181.12L136.41,181.12L137.35,181.45L137.75,181.53L138.15,181.56L138.69,181.85L139.09,181.93L139.50,181.96L140.44,182.39L140.84,182.46L141.78,182.79L142.18,182.87L142.59,182.91L143.53,183.33L143.93,183.41L144.88,183.73L145.27,183.81L145.68,183.85L146.22,184.13L146.62,184.25L146.67,184.34L147.02,184.35L147.97,184.68L148.37,184.75L149.31,185.08L149.71,185.16L150.11,185.19L151.06,185.62L151.46,185.69L152.40,186.02L152.80,186.10L153.21,186.13L153.75,186.42L154.14,186.53L154.19,186.63L154.55,186.63L155.49,186.96L155.90,187.03L156.84,187.36L157.23,187.47L157.28,187.57L157.64,187.57L158.58,187.90L158.99,187.97L159.93,188.30L160.46,188.40L160.83,188.59L160.96,188.82L160.01,188.60L126.81,178.52L126.33,178.09z"/><path style="fill:#cacbd7" d="M185.98,81.29L186.18,81.79L186.63,81.99L186.81,82.14L186.81,82.37L185.73,82.15L185.81,81.47L185.64,81.20z"/><path style="fill:#cacbd7" d="M107.65,163.42L107.63,165.29L107.39,165.28L107.37,163.31z"/><path style="fill:#ededf0" d="M127.89,162.25L160.55,171.66L161.97,172.15L161.91,172.38L161.66,172.58L127.36,162.65L126.89,162.61L127.37,162.07z"/><path style="fill:#ededf0" d="M124.36,174.83L124.30,174.98L124.05,175.23L123.90,175.36L123.63,175.62L123.49,175.62L123.87,174.94L124.21,174.56z"/><path style="fill:#242441" d="M228.57,83.35L229.36,84.44L229.89,86.05L230.16,87.94L230.16,89.99L230.03,91.47L229.63,93.62L228.95,95.77L228.01,97.79L226.75,99.75L225.32,100.88L224.38,101.15L223.46,101.06L223.03,100.85L222.68,100.50L222.42,100.23L222.38,100.13L222.26,99.89L222.14,99.83L221.98,99.59L221.88,99.29L221.75,99.02L221.71,98.79L221.57,98.38L221.43,97.98L221.30,97.44L221.30,96.77L221.18,95.95L221.18,95.15L221.18,94.21L221.18,93.39L221.31,92.46L221.43,91.92L221.58,91.11L221.70,90.57L222.63,87.57L223.06,86.69L223.75,85.36L223.99,85.16L224.01,85.06L224.29,84.69L224.55,84.29L224.96,83.89L225.11,83.74L225.50,83.48L225.67,83.31L226.03,83.08L226.19,82.94L226.99,82.81L227.13,82.75L227.62,82.82z"/><path style="fill:#242441" d="M167.81,169.10L169.01,170.19L169.83,171.92L170.09,173.54L170.09,177.21L169.69,179.50L168.88,182.05L167.40,185.14L166.01,187.10L164.39,188.44L162.79,189.15L161.49,189.00L160.96,188.82L160.83,188.59L160.46,188.40L160.33,188.26L160.19,188.12L159.93,187.84L159.80,187.58L159.67,187.31L159.53,187.04L159.39,186.77L159.22,186.40L159.08,185.87L158.95,185.19L158.81,184.39L158.69,183.57L158.68,182.50L158.82,181.57L158.82,180.74L158.94,180.44L158.95,179.95L159.10,179.27L159.22,178.47L160.42,175.06L160.86,174.07L161.66,172.58L161.91,172.38L161.97,172.15L162.31,171.84L162.34,171.65L162.71,171.30L162.75,171.11L163.18,170.67L163.41,170.43L163.82,170.15L164.22,169.77L164.60,169.57L164.61,169.49L165.02,169.29L165.83,169.02L166.77,168.84z"/><path style="fill:#ffffff" d="M170.13,74.43L170.27,74.43L170.64,74.47L170.94,74.57L171.87,74.71L172.82,74.96L173.34,75.14L173.40,75.27L172.48,75.58L170.72,75.84L165.93,75.84L163.50,75.45L162.55,75.18L162.33,75.02L162.50,74.86L163.15,74.69L163.68,74.56L163.82,74.56L164.27,74.51L164.37,74.43L164.49,74.43L164.90,74.44L165.19,74.33L165.56,74.29L166.37,74.29L167.04,74.29L167.72,74.29z"/><path style="fill:#d4d4d8" d="M170.94,74.57L170.64,74.47L170.68,72.71L170.94,72.73z"/><path style="fill:#d4d4d8" d="M188.45,81.49L188.84,80.52L189.53,80.00L189.88,79.98L189.79,80.23L189.49,80.66L189.26,80.66L188.90,81.25L188.85,82.39L188.72,82.79z"/><path style="fill:#d4d4d8" d="M108.05,165.41L107.63,165.29L107.65,163.42L107.92,163.44z"/><path style="fill:#e6e7e9" d="M162.34,171.65L162.31,171.84L161.97,172.15L160.55,171.66L127.89,162.25L127.37,162.07L127.56,161.71L127.64,161.68z"/><path style="fill:#e6e7e9" d="M122.79,174.96L122.62,175.02L122.57,175.24L122.40,175.38L122.29,175.33L122.37,174.95L122.46,174.83L122.84,174.84z"/><path style="fill:#e6e7e9" d="M122.03,176.32L121.75,176.47L121.51,176.86L121.45,176.46L121.62,176.28L121.85,176.14L122.00,175.92z"/><path style="fill:#c5c6ce" d="M171.87,72.88L171.87,74.71L170.94,74.57L170.94,72.73z"/><path style="fill:#c5c6ce" d="M167.72,74.29L167.04,74.29L167.18,72.46L167.72,72.46z"/><path style="fill:#c5c6ce" d="M221.43,82.96L225.11,83.74L224.96,83.89L191.78,77.51L192.03,77.30z"/><path style="fill:#c5c6ce" d="M129.23,160.65L163.41,170.43L163.18,170.67L128.48,160.70L128.86,160.47z"/><path style="fill:#c5c6ce" d="M108.68,163.59L109.02,163.82L108.99,165.68L108.05,165.41L107.92,163.44z"/><path style="fill:#c5c6ce" d="M104.56,164.99L103.89,165.01L103.88,163.04L104.55,163.04z"/><path style="fill:#c5c6ce" d="M168.25,175.64L168.77,175.91L168.90,176.24L168.81,176.61L166.94,176.05L166.94,175.37z"/><path style="fill:#c5c6ce" d="M165.46,185.32L165.30,185.49L163.42,184.89L163.66,184.66z"/><path style="fill:#5a5b82" d="M166.64,171.89L166.69,171.97L167.04,171.99L167.18,172.05L167.18,172.15L166.77,172.19L166.22,172.05L165.97,171.77L166.23,171.78z"/><path style="fill:#51517b" d="M166.64,171.89L166.23,171.78L166.50,171.71L166.64,171.78z"/><path style="fill:#51517b" d="M167.04,171.99L166.69,171.97L166.64,171.89L167.05,171.88z"/><path style="fill:#51517b" d="M123.78,176.01L123.51,176.09L123.09,176.03L123.22,175.89L123.77,175.94z"/><path style="fill:#b9b9b9" d="M225.91,98.40L225.65,98.54L223.90,98.20L224.15,98.00z"/><path style="fill:#b5b5c4" d="M186.28,81.05L186.34,81.50L186.52,81.70L186.63,81.99L186.18,81.79L185.98,81.29L186.02,80.77z"/><path style="fill:#6a6a8d" d="M227.92,86.41L227.98,86.49L228.61,86.52L228.72,86.81L226.97,86.57L226.86,86.28L227.25,86.28z"/><path style="fill:#6a6a8d" d="M166.77,172.19L167.17,172.29L167.23,172.38L167.57,172.40L167.98,172.54L168.10,172.59L168.23,172.83L166.36,172.33L166.22,172.05z"/><path style="fill:#dedfe1" d="M192.13,77.99L224.55,84.29L224.29,84.69L191.09,78.32L191.33,77.90L191.48,77.82z"/><path style="fill:#dedfe1" d="M128.42,161.32L162.75,171.11L162.71,171.30L162.34,171.65L127.64,161.68L128.05,161.14z"/><path style="fill:#717195" d="M124.45,175.51L124.43,175.64L123.63,175.62L123.90,175.36L124.03,175.40z"/><path style="fill:#424272" d="M127.13,178.30L126.73,178.22L127.14,178.20z"/><path style="fill:#424272" d="M128.47,178.71L128.08,178.63L128.48,178.59z"/><path style="fill:#424272" d="M130.22,179.24L129.82,179.17L130.23,179.14z"/><path style="fill:#424272" d="M131.57,179.65L131.17,179.57L131.57,179.54z"/><path style="fill:#424272" d="M133.32,180.18L132.91,180.11L133.31,180.08z"/><path style="fill:#424272" d="M134.66,180.59L134.26,180.51L134.66,180.48z"/><path style="fill:#424272" d="M136.00,181.02L135.60,180.91L136.00,180.89z"/><path style="fill:#424272" d="M136.41,181.12L136.05,181.12L136.00,181.02L136.41,181.02z"/><path style="fill:#424272" d="M137.75,181.53L137.35,181.45L137.75,181.42z"/><path style="fill:#424272" d="M139.09,181.93L138.69,181.85L139.10,181.82z"/><path style="fill:#424272" d="M140.84,182.46L140.44,182.39L140.84,182.37z"/><path style="fill:#424272" d="M142.18,182.87L141.78,182.79L142.19,182.76z"/><path style="fill:#424272" d="M143.93,183.41L143.53,183.33L143.93,183.31z"/><path style="fill:#424272" d="M145.27,183.81L144.88,183.73L145.28,183.71z"/><path style="fill:#424272" d="M146.62,184.25L146.22,184.13L146.62,184.11z"/><path style="fill:#424272" d="M147.02,184.35L146.67,184.34L146.62,184.25L147.02,184.25z"/><path style="fill:#424272" d="M148.37,184.75L147.97,184.68L148.36,184.65z"/><path style="fill:#424272" d="M149.71,185.16L149.31,185.08L149.71,185.05z"/><path style="fill:#424272" d="M151.46,185.69L151.06,185.62L151.46,185.59z"/><path style="fill:#424272" d="M152.80,186.10L152.40,186.02L152.80,185.99z"/><path style="fill:#424272" d="M154.14,186.53L153.75,186.42L154.14,186.40z"/><path style="fill:#424272" d="M154.55,186.63L154.19,186.63L154.14,186.53L154.55,186.53z"/><path style="fill:#424272" d="M155.90,187.03L155.49,186.96L155.89,186.94z"/><path style="fill:#424272" d="M157.23,187.47L156.84,187.36L157.23,187.34z"/><path style="fill:#424272" d="M157.64,187.57L157.28,187.57L157.23,187.47L157.64,187.47z"/><path style="fill:#424272" d="M158.99,187.97L158.58,187.90L158.98,187.88z"/><path style="fill:#a4a4a4" d="M130.97,159.58L165.02,169.29L164.61,169.49L129.96,159.63L130.26,159.42L130.61,159.40z"/><path style="fill:#a4a4a4" d="M163.10,185.77L164.49,186.16L164.45,186.22L163.85,186.40L162.21,185.83L162.59,185.60z"/><path style="fill:#3d3d6d" d="M190.83,93.67L192.18,93.94L192.66,94.12L194.06,94.34L195.40,94.61L195.89,94.79L197.95,95.15L198.63,95.28L199.11,95.47L201.18,95.82L202.52,96.09L203.01,96.27L205.08,96.63L205.75,96.76L206.24,96.95L208.30,97.30L209.65,97.57L210.13,97.75L212.20,98.10L212.87,98.24L213.36,98.42L215.43,98.78L216.10,98.91L216.58,99.10L219.32,99.58L220.00,99.72L220.48,99.90L222.42,100.23L222.68,100.50L221.29,100.30L189.90,93.82L189.62,93.56z"/><path style="fill:#cacbd7" d="M170.00,72.60L170.13,74.43L167.72,74.29L167.72,72.46L169.42,72.48z"/><path style="fill:#cacbd7" d="M106.80,163.18L106.98,163.29L106.97,165.14L104.56,164.99L104.55,163.04z"/><path style="fill:#ededf0" d="M122.43,175.65L122.32,176.05L122.03,176.32L122.00,175.92L122.02,175.77L122.18,175.52L122.16,175.37L122.29,175.33L122.40,175.38z"/><path style="fill:#878787" d="M194.86,76.60L195.54,76.74L195.59,76.81L196.20,76.84L196.35,76.90L196.87,76.98L197.02,77.03L197.69,77.14L199.03,77.41L199.09,77.49L199.70,77.51L199.84,77.57L200.37,77.65L200.51,77.70L201.18,77.81L201.85,77.95L201.91,78.02L202.52,78.05L202.67,78.10L203.19,78.19L203.34,78.24L204.00,78.35L204.67,78.48L204.73,78.56L205.34,78.59L205.49,78.64L206.01,78.73L206.16,78.78L206.83,78.89L208.17,79.15L208.23,79.23L208.84,79.26L208.98,79.32L209.65,79.42L210.99,79.69L211.05,79.77L211.66,79.80L211.80,79.85L212.33,79.94L212.47,79.99L213.14,80.10L213.81,80.23L213.87,80.31L214.48,80.34L214.63,80.39L215.15,80.47L215.30,80.53L215.96,80.63L217.31,80.90L217.36,80.98L217.97,81.01L218.12,81.06L218.79,81.17L220.13,81.44L220.19,81.52L220.80,81.55L220.94,81.60L221.47,81.68L221.61,81.74L222.28,81.84L222.95,81.98L223.01,82.06L223.62,82.08L223.77,82.14L224.29,82.22L224.44,82.27L225.10,82.38L226.45,82.65L226.99,82.81L226.19,82.94L225.32,82.70L193.73,76.64L193.64,76.58L194.19,76.50z"/><path style="fill:#878787" d="M165.83,169.02L165.02,169.29L130.97,159.58L130.61,159.40L131.31,159.16z"/><path style="fill:#878787" d="M122.84,174.84L122.46,174.83L122.48,174.74L122.83,174.74z"/><path style="fill:#aeaeae" d="M164.66,185.99L164.49,186.16L163.10,185.77L162.59,185.60L162.87,185.35z"/><path style="fill:#f5f5f8" d="M216.05,83.91L223.75,85.36L223.06,86.69L190.38,80.28L189.79,80.23L189.88,79.98L190.13,79.55L190.28,79.29L190.42,79.04L190.57,78.98z"/><path style="fill:#f5f5f8" d="M221.70,90.57L221.58,91.11L216.19,90.09L188.32,84.54L188.46,84.04L189.04,84.04z"/><path style="fill:#f5f5f8" d="M228.87,92.09L228.84,92.33L227.11,92.02L227.13,91.67z"/><path style="fill:#f5f5f8" d="M227.36,96.63L227.12,96.93L225.37,96.60L225.53,96.36z"/><path style="fill:#f5f5f8" d="M161.66,172.58L160.86,174.07L126.23,164.03L126.27,163.64L126.89,162.61L127.36,162.65z"/><path style="fill:#f5f5f8" d="M151.00,176.10L159.22,178.47L159.10,179.27L124.33,168.94L124.46,168.26z"/><path style="fill:#f5f5f8" d="M122.79,175.06L122.57,175.24L122.62,175.02L122.79,174.96z"/><path style="fill:#f5f5f8" d="M122.43,175.65L122.40,175.38L122.57,175.24z"/><path style="fill:#f5f5f8" d="M168.63,178.20L168.64,178.61L166.77,178.03L166.79,177.67z"/><path style="fill:#f5f5f8" d="M166.78,183.48L166.75,183.67L166.54,183.85L164.76,183.27L164.91,182.94L165.00,182.90z"/><path style="fill:#d4d4d8" d="M170.00,72.60L170.40,72.59L170.27,74.43L170.13,74.43z"/><path style="fill:#d4d4d8" d="M224.96,83.89L224.55,84.29L192.13,77.99L191.48,77.82L191.78,77.51z"/><path style="fill:#d4d4d8" d="M221.18,93.39L221.18,94.21L218.61,93.72L188.64,87.67L188.04,87.62L188.04,86.68z"/><path style="fill:#d4d4d8" d="M229.12,90.58L229.01,91.02L227.27,90.59L227.28,90.17z"/><path style="fill:#d4d4d8" d="M226.44,97.86L226.19,98.12L224.56,97.68L224.79,97.43z"/><path style="fill:#d4d4d8" d="M163.18,170.67L162.75,171.11L128.42,161.32L128.05,161.14L128.48,160.70z"/><path style="fill:#d4d4d8" d="M107.10,165.15L106.97,165.14L106.98,163.29L107.11,163.31z"/><path style="fill:#d4d4d8" d="M144.82,177.44L158.82,181.57L158.68,182.50L132.59,174.76L124.54,172.33L124.07,172.28L124.07,171.34L124.54,171.39z"/><path style="fill:#d4d4d8" d="M168.81,176.61L168.76,176.99L166.95,176.59L166.94,176.05z"/><path style="fill:#d4d4d8" d="M165.83,184.95L165.46,185.32L163.66,184.66L163.95,184.37z"/><path style="fill:#c0c1c3" d="M172.82,73.13L172.82,74.96L171.87,74.71L171.87,72.88z"/><path style="fill:#c0c1c3" d="M225.50,83.48L225.11,83.74L221.43,82.96L192.03,77.30L192.32,77.11z"/><path style="fill:#c0c1c3" d="M229.11,89.64L229.12,89.90L227.28,89.50L227.28,89.37z"/><path style="fill:#c0c1c3" d="M226.06,98.26L225.91,98.40L224.15,98.00L224.43,97.82z"/><path style="fill:#c0c1c3" d="M163.82,170.15L163.41,170.43L129.23,160.65L128.86,160.47L129.05,160.22L129.25,160.19z"/><path style="fill:#c0c1c3" d="M109.92,164.12L109.94,166.07L108.99,165.68L109.02,163.82L109.35,163.86z"/><path style="fill:#c0c1c3" d="M94.88,169.89L94.88,171.86L93.23,171.08L93.28,169.21L93.49,169.23z"/><path style="fill:#c0c1c3" d="M167.94,175.42L168.25,175.64L166.94,175.37L166.92,175.12z"/><path style="fill:#c0c1c3" d="M168.76,175.65L168.77,175.91L168.25,175.64L168.50,175.57z"/><path style="fill:#c0c1c3" d="M165.30,185.49L164.92,185.72L163.16,185.16L163.42,184.89z"/><path style="fill:#e6e7e9" d="M224.29,84.69L224.01,85.06L190.84,78.58L191.09,78.32z"/><path style="fill:#e6e7e9" d="M221.43,91.92L221.31,92.46L215.24,91.30L188.15,85.84L188.17,85.22z"/><path style="fill:#e6e7e9" d="M228.98,91.39L228.99,91.66L227.14,91.37L227.21,90.98z"/><path style="fill:#e6e7e9" d="M226.89,97.30L226.75,97.56L224.97,97.13L225.12,96.89L225.59,96.94z"/><path style="fill:#e6e7e9" d="M157.99,179.73L158.95,179.95L158.94,180.44L158.82,180.74L124.07,170.40L124.21,169.73z"/><path style="fill:#e6e7e9" d="M168.77,177.54L168.67,177.83L166.78,177.26L166.81,176.99z"/><path style="fill:#e6e7e9" d="M166.28,184.25L166.10,184.55L164.23,183.96L164.47,183.58z"/><path style="fill:#686868" d="M155.92,74.30L155.86,75.94L155.79,74.05z"/><path style="fill:#686868" d="M194.86,76.60L194.19,76.50L194.81,76.52z"/><path style="fill:#686868" d="M196.20,76.84L195.59,76.81L195.54,76.74z"/><path style="fill:#686868" d="M197.69,77.14L197.02,77.03L197.63,77.06z"/><path style="fill:#686868" d="M199.70,77.51L199.09,77.49L199.03,77.41z"/><path style="fill:#686868" d="M201.18,77.81L200.51,77.70L201.12,77.73z"/><path style="fill:#686868" d="M202.52,78.05L201.91,78.02L201.85,77.95z"/><path style="fill:#686868" d="M204.00,78.35L203.34,78.24L203.95,78.27z"/><path style="fill:#686868" d="M205.34,78.59L204.73,78.56L204.67,78.48z"/><path style="fill:#686868" d="M206.83,78.89L206.16,78.78L206.77,78.81z"/><path style="fill:#686868" d="M208.84,79.26L208.23,79.23L208.17,79.15z"/><path style="fill:#686868" d="M209.65,79.42L208.98,79.32L209.59,79.35z"/><path style="fill:#686868" d="M211.66,79.80L211.05,79.77L210.99,79.69z"/><path style="fill:#686868" d="M213.14,80.10L212.47,79.99L213.08,80.02z"/><path style="fill:#686868" d="M214.48,80.34L213.87,80.31L213.81,80.23z"/><path style="fill:#686868" d="M215.96,80.63L215.30,80.53L215.91,80.56z"/><path style="fill:#686868" d="M217.97,81.01L217.36,80.98L217.31,80.90z"/><path style="fill:#686868" d="M218.79,81.17L218.12,81.06L218.73,81.09z"/><path style="fill:#686868" d="M220.80,81.55L220.19,81.52L220.13,81.44z"/><path style="fill:#686868" d="M222.28,81.84L221.61,81.74L222.22,81.77z"/><path style="fill:#686868" d="M223.62,82.08L223.01,82.06L222.95,81.98z"/><path style="fill:#686868" d="M225.10,82.38L224.44,82.27L225.05,82.30z"/><path style="fill:#686868" d="M227.13,82.75L226.99,82.81L226.45,82.65z"/><path style="fill:#686868" d="M133.13,159.30L166.77,168.84L165.83,169.02L131.31,159.16L131.78,159.02z"/><path style="fill:#686868" d="M163.41,186.63L163.20,186.73L162.84,186.72L161.76,186.44L161.44,186.03L161.64,186.01z"/><path style="fill:#616188" d="M227.25,86.28L226.86,86.28L226.84,86.17z"/><path style="fill:#616188" d="M228.61,86.52L227.98,86.49L227.92,86.41L228.47,86.38z"/><path style="fill:#616188" d="M221.75,99.02L221.88,99.29L188.84,92.46L188.71,92.18z"/><path style="fill:#616188" d="M167.17,172.29L166.77,172.19L167.18,172.15z"/><path style="fill:#616188" d="M167.57,172.40L167.23,172.38L167.17,172.29L167.59,172.29z"/><path style="fill:#616188" d="M124.45,175.78L123.36,175.76L123.49,175.62L123.63,175.62L124.43,175.64z"/><path style="fill:#616188" d="M159.06,187.26L159.67,187.31L159.80,187.58L159.33,187.53L125.75,177.30L125.37,177.29L125.24,177.02z"/><path style="fill:#494976" d="M227.66,85.78L228.20,85.86L228.36,86.10L226.57,85.77L226.46,85.60L226.99,85.63z"/><path style="fill:#494976" d="M222.14,99.83L222.26,99.89L222.38,100.13L220.00,99.72L219.32,99.58L218.07,99.23L216.10,98.91L215.43,98.78L214.17,98.42L212.87,98.24L212.20,98.10L210.94,97.75L209.65,97.57L208.30,97.30L207.05,96.94L205.75,96.76L205.08,96.63L203.82,96.27L202.52,96.09L201.18,95.82L199.92,95.46L198.63,95.28L197.95,95.15L196.70,94.79L195.40,94.61L194.06,94.34L192.80,93.98L192.18,93.94L190.83,93.67L189.38,93.26L189.22,93.01z"/><path style="fill:#494976" d="M166.50,171.71L166.23,171.78L165.97,171.77L165.69,171.49L166.06,171.52z"/><path style="fill:#494976" d="M167.05,171.88L166.64,171.89L166.64,171.78L167.06,171.78z"/><path style="fill:#494976" d="M167.59,171.99L167.18,172.05L167.04,171.99L167.05,171.88L167.46,171.86z"/><path style="fill:#494976" d="M124.18,176.06L123.78,176.01L123.77,175.94L124.19,175.96z"/><path style="fill:#494976" d="M122.96,176.16L123.09,176.03L123.51,176.09z"/><path style="fill:#494976" d="M126.73,177.93L127.14,178.20L126.73,178.22L126.33,178.09L126.00,177.97L125.93,177.82L126.33,177.79z"/><path style="fill:#494976" d="M127.54,178.34L127.13,178.30L127.14,178.20z"/><path style="fill:#494976" d="M128.48,178.47L128.48,178.59L128.08,178.63L127.54,178.34L128.08,178.33z"/><path style="fill:#494976" d="M128.88,178.74L128.47,178.71L128.48,178.59z"/><path style="fill:#494976" d="M129.82,178.87L130.23,179.14L129.82,179.17L128.88,178.74L129.42,178.73z"/><path style="fill:#494976" d="M130.63,179.28L130.22,179.24L130.23,179.14z"/><path style="fill:#494976" d="M131.57,179.54L131.17,179.57L130.63,179.28L131.17,179.27z"/><path style="fill:#494976" d="M131.97,179.68L131.57,179.65L131.57,179.54z"/><path style="fill:#494976" d="M132.91,179.82L133.31,180.08L132.91,180.11L131.97,179.68L132.51,179.67z"/><path style="fill:#494976" d="M134.25,180.22L134.66,180.48L134.26,180.51L133.32,180.18L133.31,180.08L133.86,180.08z"/><path style="fill:#494976" d="M135.06,180.62L134.66,180.59L134.66,180.48z"/><path style="fill:#494976" d="M136.00,180.89L135.60,180.91L135.06,180.62L135.60,180.62z"/><path style="fill:#494976" d="M136.41,181.02L136.00,181.02L136.00,180.89z"/><path style="fill:#494976" d="M137.34,181.16L137.75,181.42L137.35,181.45L136.41,181.12L136.41,181.02L136.95,181.02z"/><path style="fill:#494976" d="M138.15,181.56L137.75,181.53L137.75,181.42z"/><path style="fill:#494976" d="M139.10,181.82L138.69,181.85L138.15,181.56L138.69,181.56z"/><path style="fill:#494976" d="M139.50,181.96L139.09,181.93L139.10,181.82z"/><path style="fill:#494976" d="M140.43,182.10L140.84,182.37L140.44,182.39L139.50,181.96L140.04,181.96z"/><path style="fill:#494976" d="M141.78,182.50L142.19,182.76L141.78,182.79L140.84,182.46L140.84,182.37L141.38,182.36z"/><path style="fill:#494976" d="M142.59,182.91L142.18,182.87L142.19,182.76z"/><path style="fill:#494976" d="M143.93,183.31L143.53,183.33L142.59,182.91L143.13,182.90z"/><path style="fill:#494976" d="M144.87,183.44L145.28,183.71L144.88,183.73L143.93,183.41L143.93,183.31L144.47,183.30z"/><path style="fill:#494976" d="M145.68,183.85L145.27,183.81L145.28,183.71z"/><path style="fill:#494976" d="M146.62,184.11L146.22,184.13L145.68,183.85L146.22,183.84z"/><path style="fill:#494976" d="M147.02,184.25L146.62,184.25L146.62,184.11z"/><path style="fill:#494976" d="M147.96,184.38L148.36,184.65L147.97,184.68L147.02,184.35L147.02,184.25L147.56,184.24z"/><path style="fill:#494976" d="M149.30,184.79L149.71,185.05L149.31,185.08L148.37,184.75L148.36,184.65L148.91,184.65z"/><path style="fill:#494976" d="M150.11,185.19L149.71,185.16L149.71,185.05z"/><path style="fill:#494976" d="M151.46,185.59L151.06,185.62L150.11,185.19L150.65,185.19z"/><path style="fill:#494976" d="M152.39,185.73L152.80,185.99L152.40,186.02L151.46,185.69L151.46,185.59L152.00,185.59z"/><path style="fill:#494976" d="M153.21,186.13L152.80,186.10L152.80,185.99z"/><path style="fill:#494976" d="M154.14,186.40L153.75,186.42L153.21,186.13L153.74,186.13z"/><path style="fill:#494976" d="M154.55,186.53L154.14,186.53L154.14,186.40z"/><path style="fill:#494976" d="M155.89,186.94L155.49,186.96L154.55,186.63L154.55,186.53L155.09,186.53z"/><path style="fill:#494976" d="M156.83,187.07L157.23,187.34L156.84,187.36L155.90,187.03L155.89,186.94L156.43,186.93z"/><path style="fill:#494976" d="M157.64,187.47L157.23,187.47L157.23,187.34z"/><path style="fill:#494976" d="M158.98,187.88L158.58,187.90L157.64,187.57L157.64,187.47L158.18,187.47z"/><path style="fill:#494976" d="M160.19,188.12L160.33,188.26L159.93,188.30L158.99,187.97L158.98,187.88L159.52,187.88z"/><path style="fill:#36376a" d="M228.03,85.61L226.30,85.35L226.20,85.12L227.09,84.98z"/><path style="fill:#36376a" d="M221.29,100.30L222.68,100.50L223.03,100.85L223.46,101.06L219.54,100.30L191.18,94.40L190.10,93.99L189.90,93.82z"/><path style="fill:#c5c6ce" d="M218.61,93.72L221.18,94.21L221.18,95.15L219.28,94.79L187.91,88.44L188.04,87.62L188.64,87.67z"/><path style="fill:#c5c6ce" d="M229.12,89.90L229.12,90.58L227.28,90.17L227.28,89.50z"/><path style="fill:#c5c6ce" d="M226.19,98.12L226.06,98.26L224.43,97.82L224.56,97.68z"/><path style="fill:#c5c6ce" d="M96.52,170.40L96.46,172.30L94.96,171.94L94.88,171.86L94.88,169.89z"/><path style="fill:#c5c6ce" d="M132.59,174.76L158.68,182.50L158.69,183.57L124.39,173.27L124.07,173.22L124.07,172.28L124.54,172.33z"/><path style="fill:#5a5b82" d="M228.43,86.29L228.47,86.38L227.92,86.41L227.25,86.28L226.84,86.17L226.70,86.03L227.34,86.06z"/><path style="fill:#5a5b82" d="M221.88,99.29L221.98,99.59L188.97,92.73L188.84,92.46z"/><path style="fill:#5a5b82" d="M167.59,172.29L167.17,172.29L167.18,172.15z"/><path style="fill:#5a5b82" d="M167.98,172.54L167.57,172.40L167.59,172.29L167.84,172.28z"/><path style="fill:#5a5b82" d="M124.19,175.96L123.77,175.94L123.22,175.89L123.36,175.76L124.45,175.78z"/><path style="fill:#5a5b82" d="M159.33,187.53L159.80,187.58L159.93,187.84L159.52,187.88L158.67,187.51L158.18,187.47L157.33,187.11L156.83,187.07L156.43,186.93L155.58,186.57L155.09,186.53L154.24,186.17L153.74,186.13L152.89,185.77L152.39,185.73L152.00,185.59L151.15,185.23L150.65,185.19L149.80,184.83L149.30,184.79L148.91,184.65L148.46,184.42L147.96,184.38L147.56,184.24L146.71,183.89L146.22,183.84L145.37,183.48L144.87,183.44L144.47,183.30L143.62,182.95L143.13,182.90L142.28,182.54L141.78,182.50L141.38,182.36L140.93,182.14L140.43,182.10L140.04,181.96L139.19,181.60L138.69,181.56L137.84,181.20L137.34,181.16L136.95,181.02L136.09,180.66L135.60,180.62L134.75,180.26L134.25,180.22L133.86,180.08L133.41,179.85L132.91,179.82L132.51,179.67L131.66,179.32L131.17,179.27L130.32,178.91L129.82,178.87L129.42,178.73L128.97,178.51L128.48,178.47L128.08,178.33L127.22,177.97L126.73,177.93L126.33,177.79L125.88,177.57L125.52,177.55L125.37,177.29L125.75,177.30z"/><path style="fill:#51517b" d="M228.36,86.10L228.43,86.29L227.34,86.06L226.70,86.03L226.57,85.77z"/><path style="fill:#51517b" d="M221.98,99.59L222.14,99.83L189.22,93.01L188.97,92.73z"/><path style="fill:#51517b" d="M167.84,172.28L167.59,172.29L167.18,172.15L167.18,172.05L167.59,171.99z"/><path style="fill:#51517b" d="M126.33,177.79L125.93,177.82L125.52,177.55L125.88,177.57z"/><path style="fill:#51517b" d="M128.08,178.33L127.54,178.34L127.14,178.20L126.73,177.93L127.22,177.97z"/><path style="fill:#51517b" d="M129.42,178.73L128.88,178.74L128.48,178.59L128.48,178.47L128.97,178.51z"/><path style="fill:#51517b" d="M131.17,179.27L130.63,179.28L130.23,179.14L129.82,178.87L130.32,178.91z"/><path style="fill:#51517b" d="M132.51,179.67L131.97,179.68L131.57,179.54L131.17,179.27L131.66,179.32z"/><path style="fill:#51517b" d="M133.86,180.08L133.31,180.08L132.91,179.82L133.41,179.85z"/><path style="fill:#51517b" d="M135.60,180.62L135.06,180.62L134.66,180.48L134.25,180.22L134.75,180.26z"/><path style="fill:#51517b" d="M136.95,181.02L136.41,181.02L136.00,180.89L135.60,180.62L136.09,180.66z"/><path style="fill:#51517b" d="M138.69,181.56L138.15,181.56L137.75,181.42L137.34,181.16L137.84,181.20z"/><path style="fill:#51517b" d="M140.04,181.96L139.50,181.96L139.10,181.82L138.69,181.56L139.19,181.60z"/><path style="fill:#51517b" d="M141.38,182.36L140.84,182.37L140.43,182.10L140.93,182.14z"/><path style="fill:#51517b" d="M143.13,182.90L142.59,182.91L142.19,182.76L141.78,182.50L142.28,182.54z"/><path style="fill:#51517b" d="M144.47,183.30L143.93,183.31L143.13,182.90L143.62,182.95z"/><path style="fill:#51517b" d="M146.22,183.84L145.68,183.85L145.28,183.71L144.87,183.44L145.37,183.48z"/><path style="fill:#51517b" d="M147.56,184.24L147.02,184.25L146.62,184.11L146.22,183.84L146.71,183.89z"/><path style="fill:#51517b" d="M148.91,184.65L148.36,184.65L147.96,184.38L148.46,184.42z"/><path style="fill:#51517b" d="M150.65,185.19L150.11,185.19L149.71,185.05L149.30,184.79L149.80,184.83z"/><path style="fill:#51517b" d="M152.00,185.59L151.46,185.59L150.65,185.19L151.15,185.23z"/><path style="fill:#51517b" d="M153.74,186.13L153.21,186.13L152.80,185.99L152.39,185.73L152.89,185.77z"/><path style="fill:#51517b" d="M155.09,186.53L154.55,186.53L154.14,186.40L153.74,186.13L154.24,186.17z"/><path style="fill:#51517b" d="M156.43,186.93L155.89,186.94L155.09,186.53L155.58,186.57z"/><path style="fill:#51517b" d="M158.18,187.47L157.64,187.47L157.23,187.34L156.83,187.07L157.33,187.11z"/><path style="fill:#51517b" d="M159.52,187.88L158.98,187.88L158.18,187.47L158.67,187.51z"/><path style="fill:#51517b" d="M160.19,188.12L159.52,187.88L159.93,187.84z"/><path style="fill:#b9b9b9" d="M173.39,73.37L173.34,75.14L172.82,74.96L172.82,73.13L173.05,73.14z"/><path style="fill:#b9b9b9" d="M193.34,77.05L208.12,79.87L225.67,83.31L225.50,83.48L192.32,77.11L192.68,76.88z"/><path style="fill:#b9b9b9" d="M132.99,160.92L164.22,169.77L163.82,170.15L129.25,160.19L129.55,159.91z"/><path style="fill:#b9b9b9" d="M110.33,164.39L110.32,166.23L109.94,166.07L109.92,164.12z"/><path style="fill:#b9b9b9" d="M93.28,169.21L93.23,171.08L92.43,170.59L92.30,170.41L92.36,168.65L92.55,168.69z"/><path style="fill:#b9b9b9" d="M164.92,185.72L164.66,185.99L162.87,185.35L163.16,185.16z"/><path style="fill:#8c8ca8" d="M228.84,87.49L228.97,87.90L227.15,87.61L227.13,87.22z"/><path style="fill:#8c8ca8" d="M221.30,97.44L221.43,97.98L188.91,91.29L188.41,91.28L188.28,90.74z"/><path style="fill:#8c8ca8" d="M168.40,173.46L168.55,173.86L166.68,173.35L166.54,172.95z"/><path style="fill:#8c8ca8" d="M124.45,175.51L124.03,175.40L124.40,175.42z"/><path style="fill:#8c8ca8" d="M150.60,183.36L159.08,185.87L159.22,186.40L125.07,176.09L124.72,176.08L124.59,176.01L124.45,175.78L124.43,175.64L124.45,175.51z"/><path style="fill:#9899b1" d="M186.81,81.58L186.94,81.87L186.93,82.09L186.81,82.14L186.63,81.99L186.52,81.70L186.56,81.31z"/><path style="fill:#9899b1" d="M228.97,87.90L229.00,88.27L227.28,88.02L227.15,87.61z"/><path style="fill:#9899b1" d="M221.30,96.77L221.30,97.44L188.28,90.74L188.19,90.66L188.18,90.03z"/><path style="fill:#9899b1" d="M168.55,173.86L168.65,174.16L168.07,174.09L166.81,173.76L166.68,173.35z"/><path style="fill:#9899b1" d="M158.95,185.19L159.08,185.87L150.60,183.36L124.45,175.51L124.40,175.42L124.03,175.40L123.90,175.36L124.05,175.23L124.30,175.11L124.30,174.98L124.36,174.83z"/><path style="fill:#a5a5ba" d="M186.56,81.31L186.52,81.70L186.34,81.50L186.28,81.05L186.37,81.03z"/><path style="fill:#a5a5ba" d="M187.08,82.35L186.81,82.37L186.81,82.14L186.93,82.09z"/><path style="fill:#a5a5ba" d="M229.00,88.27L229.09,88.35L229.11,89.09L227.29,88.69L227.28,88.02z"/><path style="fill:#a5a5ba" d="M168.07,174.09L168.65,174.16L168.76,174.34L168.76,174.98L166.93,174.58L166.86,174.49L166.81,173.76z"/><path style="fill:#a5a5ba" d="M158.81,184.39L158.95,185.19L124.36,174.83L124.21,174.56L124.14,174.29L124.19,174.07L124.40,174.07z"/><path style="fill:#a5a5ba" d="M124.30,175.11L124.05,175.23L124.30,174.98z"/><path style="fill:#b5b5c4" d="M185.59,82.10L185.29,81.98L185.35,81.58z"/><path style="fill:#b5b5c4" d="M187.33,82.64L187.01,82.58L186.81,82.37L187.08,82.35z"/><path style="fill:#b5b5c4" d="M219.28,94.79L221.18,95.15L221.18,95.95L218.47,95.47L188.04,89.23L187.91,88.44z"/><path style="fill:#b5b5c4" d="M229.11,89.09L229.11,89.64L227.28,89.37L227.29,88.69z"/><path style="fill:#b5b5c4" d="M168.76,174.98L168.76,175.65L168.50,175.57L168.25,175.64L167.94,175.42L166.92,175.12L166.93,174.58z"/><path style="fill:#b5b5c4" d="M121.25,175.64L121.22,175.41L121.46,175.37z"/><path style="fill:#6a6a8d" d="M187.06,81.82L186.94,81.87L186.81,81.58z"/><path style="fill:#6a6a8d" d="M221.71,98.79L221.75,99.02L188.71,92.18L188.67,91.95z"/><path style="fill:#6a6a8d" d="M158.53,186.85L159.53,187.04L159.67,187.31L159.06,187.26L125.24,177.02L125.00,176.72z"/><path style="fill:#dedfe1" d="M188.85,82.39L188.90,81.25L189.26,80.66L189.49,80.66z"/><path style="fill:#dedfe1" d="M215.24,91.30L221.31,92.46L221.18,93.39L188.04,86.68L188.06,85.92L188.15,85.84z"/><path style="fill:#dedfe1" d="M229.01,91.02L228.98,91.39L227.21,90.98L227.27,90.59z"/><path style="fill:#dedfe1" d="M226.75,97.56L226.44,97.86L224.79,97.43L224.97,97.13z"/><path style="fill:#dedfe1" d="M158.82,180.74L158.82,181.57L144.82,177.44L124.54,171.39L124.07,171.34L124.07,170.40z"/><path style="fill:#dedfe1" d="M122.18,175.52L122.02,175.77L122.03,175.42L122.16,175.37z"/><path style="fill:#dedfe1" d="M122.00,175.92L121.85,176.14L121.62,176.28L121.81,175.83L122.02,175.77z"/><path style="fill:#dedfe1" d="M168.76,176.99L168.77,177.54L166.81,176.99L166.95,176.59z"/><path style="fill:#dedfe1" d="M166.10,184.55L165.83,184.95L163.95,184.37L164.23,183.96z"/><path style="fill:#717195" d="M187.63,82.39L187.73,82.77L187.33,82.64L187.08,82.35L186.93,82.09L186.94,81.87L187.06,81.82L187.18,81.84z"/><path style="fill:#717195" d="M228.72,86.81L228.74,87.05L227.19,86.86L227.00,86.81L226.97,86.57z"/><path style="fill:#717195" d="M221.57,98.38L221.71,98.79L188.67,91.95L188.54,91.69L189.04,91.70z"/><path style="fill:#717195" d="M168.23,172.83L168.26,173.07L167.01,172.73L166.50,172.72L166.36,172.33z"/><path style="fill:#717195" d="M155.44,185.64L159.39,186.77L159.53,187.04L158.53,186.85L125.00,176.72L124.87,176.45L125.20,176.50z"/><path style="fill:#424272" d="M228.20,85.86L227.66,85.78L228.07,85.70z"/><path style="fill:#424272" d="M190.83,93.67L189.62,93.56L189.43,93.43L189.38,93.26z"/><path style="fill:#424272" d="M194.06,94.34L192.66,94.12L192.18,93.94L192.80,93.98z"/><path style="fill:#424272" d="M196.70,94.79L197.95,95.15L195.89,94.79L195.40,94.61z"/><path style="fill:#424272" d="M199.92,95.46L201.18,95.82L199.11,95.47L198.63,95.28z"/><path style="fill:#424272" d="M203.82,96.27L205.08,96.63L203.01,96.27L202.52,96.09z"/><path style="fill:#424272" d="M207.05,96.94L208.30,97.30L206.24,96.95L205.75,96.76z"/><path style="fill:#424272" d="M210.94,97.75L212.20,98.10L210.13,97.75L209.65,97.57z"/><path style="fill:#424272" d="M214.17,98.42L215.43,98.78L213.36,98.42L212.87,98.24z"/><path style="fill:#424272" d="M218.07,99.23L219.32,99.58L216.58,99.10L216.10,98.91z"/><path style="fill:#424272" d="M222.38,100.13L222.42,100.23L220.48,99.90L220.00,99.72z"/><path style="fill:#424272" d="M167.46,171.86L167.05,171.88L167.06,171.78L167.32,171.72z"/><path style="fill:#424272" d="M124.59,176.01L124.18,176.06L124.19,175.96L124.45,175.78z"/><path style="fill:#424272" d="M121.90,177.01L122.04,176.71L122.96,176.16L123.51,176.09L123.78,176.01L124.18,176.06z"/><path style="fill:#424272" d="M160.46,188.40L159.93,188.30L160.33,188.26z"/><path style="fill:#a4a4a4" d="M225.38,98.80L225.33,98.88L224.97,98.88L224.25,98.69L223.75,98.67L223.51,98.54L223.74,98.36z"/><path style="fill:#3d3d6d" d="M187.98,82.80L187.73,82.77L187.63,82.39L187.72,82.37z"/><path style="fill:#3d3d6d" d="M228.03,85.61L228.07,85.70L227.66,85.78L226.99,85.63L226.46,85.60L226.30,85.35z"/><path style="fill:#3d3d6d" d="M167.01,171.52L167.32,171.72L167.06,171.78L166.64,171.78L166.50,171.71L166.06,171.52L165.69,171.49L165.61,171.39L166.08,171.27z"/><path style="fill:#cacbd7" d="M170.68,72.71L170.64,74.47L170.27,74.43L170.40,72.59z"/><path style="fill:#cacbd7" d="M185.71,80.48L185.64,80.96L185.35,80.92L185.31,80.12L185.43,80.09z"/><path style="fill:#cacbd7" d="M107.21,165.18L107.10,165.15L107.11,163.31L107.24,163.31z"/><path style="fill:#7d7d9d" d="M228.74,87.05L228.84,87.49L227.13,87.22L227.00,86.81L227.19,86.86z"/><path style="fill:#7d7d9d" d="M221.43,97.98L221.57,98.38L189.04,91.70L188.54,91.69L188.41,91.28L188.91,91.29z"/><path style="fill:#7d7d9d" d="M168.26,173.07L168.40,173.46L166.54,172.95L166.50,172.72L167.01,172.73z"/><path style="fill:#7d7d9d" d="M159.22,186.40L159.39,186.77L155.44,185.64L125.20,176.50L124.87,176.45L124.72,176.08L125.07,176.09z"/><path style="fill:#ededf0" d="M224.01,85.06L223.99,85.16L223.75,85.36L216.05,83.91L190.57,78.98L190.69,78.64L190.84,78.58z"/><path style="fill:#ededf0" d="M216.19,90.09L221.58,91.11L221.43,91.92L188.17,85.22L188.32,84.54z"/><path style="fill:#ededf0" d="M228.99,91.66L228.87,92.09L227.13,91.67L227.14,91.37z"/><path style="fill:#ededf0" d="M227.12,96.93L227.09,97.12L226.89,97.30L225.59,96.94L225.12,96.89L225.37,96.60z"/><path style="fill:#ededf0" d="M159.10,179.27L158.95,179.95L157.99,179.73L124.21,169.73L124.33,168.94z"/><path style="fill:#ededf0" d="M123.29,174.75L122.84,174.84L122.83,174.74L123.14,174.57L123.36,174.59z"/><path style="fill:#ededf0" d="M168.67,177.83L168.63,178.20L166.79,177.67L166.78,177.26z"/><path style="fill:#ededf0" d="M166.54,183.85L166.28,184.25L164.47,183.58L164.76,183.27z"/><path style="fill:#878787" d="M174.39,73.94L174.54,74.41L174.26,74.83L174.26,73.81z"/><path style="fill:#878787" d="M156.12,74.76L156.38,74.91L156.27,76.73L155.97,76.39L155.86,75.94L155.92,74.30z"/><path style="fill:#878787" d="M185.43,80.09L186.18,79.72L186.49,79.73L186.37,81.03L186.28,81.05L186.02,80.77L185.71,80.48z"/><path style="fill:#878787" d="M224.97,98.88L224.60,98.97L224.25,98.97L223.75,98.67L224.25,98.69z"/><path style="fill:#878787" d="M111.37,165.75L111.22,166.33L111.22,165.34z"/><path style="fill:#878787" d="M90.97,167.05L91.09,169.07L90.94,168.98L90.88,166.91z"/><path style="fill:#878787" d="M124.14,174.29L123.82,174.34L123.36,174.59L123.14,174.57L123.69,174.22L124.08,174.03L124.19,174.07z"/><path style="fill:#878787" d="M163.85,186.40L163.41,186.63L161.64,186.01L162.21,185.83z"/><path style="fill:#aeaeae" d="M173.73,73.54L173.73,75.09L173.40,75.27L173.34,75.14L173.39,73.37z"/><path style="fill:#aeaeae" d="M226.03,83.08L225.67,83.31L208.12,79.87L193.34,77.05L192.68,76.88L192.75,76.79L193.34,76.78z"/><path style="fill:#aeaeae" d="M225.65,98.54L225.38,98.80L223.74,98.36L223.90,98.20z"/><path style="fill:#aeaeae" d="M164.61,169.49L164.60,169.57L164.22,169.77L132.99,160.92L129.55,159.91L129.96,159.63z"/><path style="fill:#aeaeae" d="M110.70,164.66L110.73,166.64L110.32,166.23L110.33,164.39z"/><path style="fill:#aeaeae" d="M92.36,168.65L92.30,170.41L92.02,170.32L91.74,170.06L91.48,169.74L91.61,168.02z"/><path style="fill:#ffffff" d="M228.84,92.33L228.28,94.70L227.36,96.63L225.53,96.36L226.53,94.03L227.11,92.02z"/><path style="fill:#ffffff" d="M168.64,178.61L167.94,181.25L167.14,182.99L166.78,183.48L165.00,182.90L166.06,180.58L166.77,178.03z"/><g id="Actor_.0"><g style="stroke:#000000;stroke-width:0.176"><path d="M155.80,73.93L156.09,74.68L157.02,75.41L158.55,76.07L160.61,76.64L163.07,77.07L185.34,80.08L188.29,82.92"/><path d="M173.52,75.25L174.37,74.75L174.58,74.20L174.13,73.65L173.08,73.15L171.53,72.75L169.63,72.49L167.57,72.39L165.53,72.46L163.72,72.70L162.31,73.08L161.43,73.56L161.19,74.11L161.60,74.67L162.22,74.97"/><path d="M185.28,82.00L185.33,80.56"/><path d="M185.34,80.08L187.44,79.21"/><path d="M188.60,83.22L189.29,81.17L190.38,79.08L191.65,77.52L191.88,77.37L191.58,77.49"/><path d="M191.88,77.37L193.00,76.61L193.31,76.57"/><path d="M224.02,101.21L222.90,100.74L221.99,99.55L221.39,97.74L221.14,95.45L221.26,92.87L221.75,90.21L222.57,87.70L223.64,85.55L224.87,83.92L226.17,82.96L227.43,82.74"/><path d="M222.72,97.38L222.32,95.70L222.25,93.66L222.53,91.44L223.12,89.28L223.96,87.39L224.98,85.95L226.07,85.12L226.14,85.11L226.17,85.13L226.86,86.28L227.24,87.95L227.30,89.97L227.03,92.15L226.45,94.27L225.62,96.14L224.62,97.57L223.54,98.43L223.38,98.46L222.72,97.38"/><path d="M223.38,98.46L223.42,98.51L224.33,99.00L225.38,98.81L226.46,97.95L227.46,96.51L228.29,94.64L228.86,92.51L229.14,90.34L229.08,88.31L228.70,86.64L228.02,85.48L227.11,84.96L226.14,85.11"/></g><g style="stroke:#000000;stroke-width:0.529"><path d="M155.90,76.15L155.77,75.81L155.80,73.93L156.16,73.20L157.15,72.52L158.71,71.94L160.75,71.48L163.15,71.16L165.81,71.00L168.57,71.01L171.29,71.19L173.84,71.53L176.08,72.01L193.31,76.57L194.32,76.42L227.43,82.74L228.54,83.27L229.41,84.49L229.99,86.31L230.22,88.58L230.08,91.11L229.60,93.71L228.81,96.17L227.77,98.30L226.56,99.93L225.28,100.93L224.02,101.21L191.08,94.35L189.89,93.87L188.91,92.70L188.24,90.93L187.93,88.69L188.01,86.18L188.48,83.60L188.60,83.22L188.29,82.92L185.28,82.00L163.03,78.97L160.57,78.54L158.52,77.97L156.99,77.30L156.05,76.56L155.90,76.15"/><path d="M162.27,75.00L162.63,75.18L164.18,75.59L166.11,75.86L168.21,75.96L170.28,75.88L172.11,75.64L173.52,75.25L173.03,75.02L171.48,74.61L169.58,74.35L167.52,74.25L165.49,74.32L163.68,74.56L162.27,74.94L162.22,74.97L162.27,75.00"/></g></g><g id="Actor_.1"><g style="stroke:#000000;stroke-width:0.176"><path d="M121.18,176.91L121.18,175.38L97.64,170.63L95.08,169.94L93.02,169.04L91.57,167.96L90.81,166.79L90.78,165.57"/><path d="M110.94,166.80L110.97,166.78L111.40,165.88L111.11,164.98L110.13,164.17L108.57,163.54L106.57,163.12L104.33,162.98L102.06,163.11L99.97,163.51L98.28,164.13L97.13,164.93L96.66,165.83L96.90,166.73L97.14,166.93"/><path d="M121.18,177.41L124.33,175.00L124.16,174.22L121.18,175.38L122.50,174.67"/><path d="M122.50,176.69L122.55,176.66"/><path d="M124.33,175.00L124.48,175.71L124.63,175.99"/><path d="M124.04,176.07L124.43,176.02"/><path d="M124.16,174.22L123.99,173.42L124.00,170.75L124.49,167.92L124.84,166.91"/><path d="M161.24,188.94L160.02,187.94L159.16,186.19L158.74,183.84L158.80,181.09L159.32,178.17L160.27,175.31L161.57,172.76L163.10,170.73L164.74,169.39L166.36,168.83L167.81,169.10"/><path d="M165.62,171.38L164.69,171.68L163.32,172.84L162.07,174.62L161.05,176.83L160.37,179.26L160.11,181.66L160.28,183.80L160.87,185.45L161.82,186.47L163.03,186.74L164.37,186.26L165.73,185.08L166.96,183.31L167.95,181.13L168.61,178.74L168.88,176.38L168.72,174.27L168.16,172.61L167.23,171.57L166.04,171.24L165.62,171.38L166.22,172.06L166.79,173.72L166.95,175.82L166.69,178.18L166.03,180.56L165.04,182.74L163.80,184.50L162.44,185.68L161.42,186.04"/></g><g style="stroke:#000000;stroke-width:0.529"><path d="M90.84,168.77L91.60,169.95L93.04,171.03L95.10,171.94L97.66,172.63L121.18,177.41L122.50,176.69L123.52,176.28L124.43,176.02L124.63,175.99L125.41,177.43L126.70,178.44L161.24,188.94L162.71,189.14L164.32,188.52L165.94,187.14L167.44,185.11L168.69,182.60L168.79,182.31L169.62,179.81L170.13,176.96L170.20,174.26L169.81,171.94L168.99,170.17L167.81,169.10L133.23,159.30L131.70,159.00L130.02,159.51L128.32,160.78L126.75,162.71L125.44,165.16L124.84,166.91L113.86,162.30L111.56,161.54L108.88,161.01L105.94,160.74L102.90,160.74L99.92,161.02L97.15,161.55L94.73,162.31L92.80,163.27L91.45,164.37L90.78,165.57L90.81,167.54L90.84,168.77"/><path d="M97.57,167.31L97.85,167.55L99.42,168.21L101.45,168.63L103.73,168.79L106.05,168.65L108.16,168.23L109.86,167.59L110.94,166.80L110.14,166.14L108.58,165.50L106.58,165.08L104.34,164.93L102.07,165.07L99.99,165.47L98.30,166.10L97.15,166.90L97.14,166.93L97.57,167.31"/></g></g><g><g><path style="stroke:#000000;stroke-width:0.250" d="M97.02,120.58L119.06,158.20"/></g><g><path style="fill:#000000" d="M120.07,158.18L120.07,158.08L120.05,157.98L120.03,157.89L120.00,157.79L119.95,157.71L119.90,157.62L119.84,157.54L119.78,157.47L119.71,157.40L119.63,157.35L119.54,157.30L119.45,157.25L119.36,157.22L119.27,157.20L119.17,157.18L119.07,157.18L118.97,157.18L118.88,157.20L118.78,157.22L118.69,157.25L118.60,157.30L118.52,157.35L118.44,157.40L118.36,157.47L118.30,157.54L118.24,157.62L118.19,157.71L118.15,157.79L118.11,157.89L118.09,157.98L118.08,158.08L118.07,158.18L118.08,158.28L118.09,158.37L118.11,158.47L118.15,158.56L118.19,158.65L118.24,158.73L118.30,158.81L118.36,158.88L118.44,158.95L118.52,159.01L118.60,159.06L118.69,159.10L118.78,159.13L118.88,159.16L118.97,159.17L119.07,159.18L119.17,159.17L119.27,159.16L119.36,159.13L119.45,159.10L119.54,159.06L119.63,159.01L119.71,158.95L119.78,158.88L119.84,158.81L119.90,158.73L119.95,158.65L120.00,158.56L120.03,158.47L120.05,158.37L120.07,158.28z"/></g><g><path style="fill:#ffffff" d="M45.85,121.77L148.25,121.77L148.25,100.18L45.85,100.18z"/><path style="stroke:#000000;stroke-width:0.250;stroke-opacity:0.98" d="M45.85,121.77L148.25,121.77L148.25,100.18L45.85,100.18z"/><text xml:space="preserve" fill="#000000" stroke-width="0" x="47.05" y="107.08" font-size="5.86" opacity="1.00" font-family="MS Shell Dlg">Part Number: 52041-7         </text><text xml:space="preserve" fill="#000000" stroke-width="0" x="47.05" y="113.07" font-size="5.86" opacity="1.00" font-family="MS Shell Dlg">Manufacturer: TE Connectivity AMP </text><text xml:space="preserve" fill="#000000" stroke-width="0" x="47.05" y="119.07" font-size="5.83" opacity="1.00" font-family="MS Shell Dlg">Connectors</text></g></g><g/><g><g/><g><path style="stroke:#000000;stroke-width:0.125;fill:#ffffff" d="M246.01,11.73L264.72,11.73L264.72,26.97L246.01,26.97z"/><text xml:space="preserve" fill="#000000" stroke-width="0" x="247.92" y="22.21" font-size="8.86" opacity="1.00" font-family="MS Shell Dlg">Exit</text></g></g><g/><g id="paperID" visibility="hidden" opacity="0.00" transform="scale(0.000100)"><path style="stroke:#000000;stroke-width:0.500;fill:#e6e6e6;fill-rule:evenodd" d="M-2000.00,-2000.00L2297.00,-2000.00L2297.00,2210.00L-2000.00,2210.00zM0.00,0.00L297.00,0.00L297.00,210.00L0.00,210.00z"/><path style="fill:#000000;fill-opacity:0.118" d="M3.00,210.00L297.00,210.00L297.00,3.00L300.00,3.00L300.00,213.00L3.00,213.00z"/></g><g id="hotspot.0" onmouseover="ShowHotSpot(evt,'0')" onmouseout="HideHotSpot(evt,'0')" onmousemove="ShowToolTip(evt,'0',&quot;2D Text 3&quot;)" opacity="0"><a xlink:href="main.svg"><path style="fill:#00ff00;fill-rule:evenodd" d="M245.87,11.65L264.84,11.60L264.84,27.11L245.87,27.06z"/></a></g><g id="hotspot.1" onmouseover="ShowHotSpot(evt,'1')" onmouseout="HideHotSpot(evt,'1')" onmousemove="ShowToolTip(evt,'1',&quot;Hotspot 1&quot;)" opacity="0"><path style="fill:#ff8000;fill-rule:evenodd" d="M174.53,71.68L193.07,76.52L194.82,76.51L227.61,82.83L228.57,83.35L229.36,84.44L229.89,86.05L230.16,87.94L230.16,89.99L230.03,91.47L229.63,93.62L228.95,95.77L228.01,97.79L226.69,99.82L225.16,100.98L224.48,101.11L223.44,101.11L191.18,94.40L189.86,93.84L188.90,92.64L188.36,91.30L187.97,88.88L188.06,85.92L188.52,83.23L187.97,82.83L185.28,82.02L162.70,78.93L159.47,78.27L157.86,77.73L156.93,77.31L156.12,76.64L155.84,75.98L155.84,73.86L156.39,73.07L157.28,72.48L159.30,71.81L161.31,71.41L163.60,71.14L170.36,71.14zM133.13,159.30L167.81,169.10L169.01,170.19L169.83,171.92L170.09,173.54L170.09,177.21L169.69,179.50L168.88,182.05L167.40,185.14L166.01,187.10L164.39,188.44L162.79,189.15L161.49,189.00L126.81,178.52L125.48,177.56L124.66,176.09L124.22,176.09L123.42,176.37L121.41,177.31L120.63,177.30L96.98,172.47L94.96,171.94L92.81,170.86L91.47,169.79L90.94,168.97L90.78,165.52L91.56,164.26L93.04,163.19L94.92,162.25L97.07,161.58L99.90,161.04L102.58,160.78L106.26,160.78L107.73,160.91L111.09,161.45L113.64,162.26L124.53,166.84L124.89,166.83L125.74,164.58L127.03,162.37L128.52,160.64L130.26,159.43L131.78,159.02zM172.51,74.90L173.33,75.19L173.33,75.34L172.48,75.58L170.72,75.84L165.93,75.84L163.50,75.45L162.54,75.18L162.37,75.02L163.46,74.63L165.21,74.36L169.69,74.36zM106.39,165.08L108.41,165.48L110.16,166.15L110.83,166.88L109.98,167.50L108.77,168.03L107.15,168.44L105.27,168.70L102.36,168.70L101.01,168.57L99.26,168.17L97.79,167.50L97.25,167.08L97.24,166.87L98.46,166.06L100.03,165.48L102.05,165.08L104.39,164.95z"/></g><g id="ToolTip" visibility="hidden" opacity="0" transform="translate(0,0)"><rect id="ToolTipShadow" opacity="0.20" fill="black" stroke="none" x="0" y="0" width="30" height="8"/><rect id="ToolTipBG" fill="#ffffe1" stroke="black" x="0" y="0" width="30" height="8"/><text xml:space="preserve" id="ToolTipText" fill="black" x="0" y="0" width="30" height="8">tooltip</text></g></g></svg>
