<?xml version="1.0" encoding="UTF-8" standalone="no"?>
<svg xmlns="http://www.w3.org/2000/svg" xmlns:xlink="http://www.w3.org/1999/xlink" width="297.000mm" height="210.000mm" viewBox="0.000000 0.000000 297.000000 210.000000" stroke-linejoin="round" stroke-linecap="round" fill="none" fill-rule="evenodd"><desc>Composer Export</desc><script type="text/ecmascript"><![CDATA[
if(typeof(top) != "undefined")
{
	top.ShowPaper = ShowPaper;
}
function ShowHotSpot(evt,hotspotid)
{
	var svgDocument = evt.target.ownerDocument;
	var strId = "hotspot."+hotspotid;
	var hotspot = svgDocument.getElementById(strId);
	if(hotspot)
		hotspot.setAttribute("opacity",".5");
}
function HideHotSpot(evt,hotspotid)
{
	var svgDocument = evt.target.ownerDocument;
	var strId = "hotspot."+hotspotid;
	var hotspot = svgDocument.getElementById(strId);
	if(hotspot)
		hotspot.setAttribute("opacity","0");

	var toolTip = svgDocument.getElementById('ToolTip');
	if(toolTip)
		toolTip.setAttribute("visibility","hidden");
}
function ShowToolTip(evt,hotspotid,strTooltip)
{
	if(strTooltip=="")
	return;

	// change text
	var svgDocument = evt.target.ownerDocument;
	var tiptext = svgDocument.getElementById('ToolTipText');
	if( !tiptext )
	return;
	tiptext.firstChild.nodeValue = " " + strTooltip + "  " ;

	// show tooltip before, else some refresh issue

	var toolTip = svgDocument.getElementById('ToolTip');
	if(!toolTip)
	return;

	toolTip.setAttribute("visibility","visible");
	toolTip.setAttribute("opacity",".95");

	// move tooltip
	// get viewbox

	var root = svgDocument.documentElement;
	var vbox = (root.getAttribute("viewBox")).split(' ');
	var x0 = parseFloat(vbox[0]);
	var y0 = parseFloat(vbox[1]);
	var vboxW = parseFloat(vbox[2]);
	var vboxH = parseFloat(vbox[3]);

	// get default width of svg

	var strW = root.getAttribute("width");
	var svgW = parseFloat(strW);
	if(strW.indexOf('mm') != -1)
	svgW *= 3.779;

	var strH = root.getAttribute("height");
	var svgH = parseFloat(strH);
	if(strH.indexOf('mm') != -1)
	svgH *= 3.779;  	// 96 dpi  -> 96/25.4 = 3.779

	// update the viewbox / width / height if svg is embedded in html with zoom fit all
	var realx0 = x0;
	var realy0 = y0;
	var realvboxW = vboxW;
	var realvboxH = vboxH;
	var realsvgW = svgW;
	var realsvgH = svgH;

	if ((typeof(top) == "undefined") || (typeof(top.svgctl1) != "undefined")) // embedded in html
	{
		// get window size in pxl

		svgW = window.innerWidth;
		svgH = window.innerHeight;

		// calculate real viewbox

		realsvgW = svgW;
		realsvgH = svgH;
		if((svgW / svgH) > (vboxW / vboxH))
		{
			realvboxW = (vboxH * svgW) / svgH;
			realvboxH = vboxH;
			realx0 = x0 - (realvboxW - vboxW)/2 ;
		}
		else
		{
			realvboxH = (vboxW * svgH) / svgW;
			realvboxW = vboxW;
			realy0 = y0 - (realvboxH - vboxH)/2 ;
		}
	}

	// get user zoom/pan

	var newScale = root.currentScale;
	var translation = root.currentTranslate;

	// transform pxl to user unit

	var xPos = (((evt.clientX+10- translation.x)/newScale) * realvboxW)/realsvgW  + realx0 ;
	var yPos = (((evt.clientY+5- translation.y)/newScale) * realvboxH)/ realsvgH  + realy0 ;
	var scaleForWidth = ( (1 / newScale) * realvboxH) / realsvgH;

	// move tooltip

	toolTip.setAttribute("transform", "translate(" + xPos + "," + yPos + ")" );

	// resize tooltip

	var fontsize = 12;
	tiptext.setAttribute("font-size",fontsize*scaleForWidth);
	tiptext.setAttribute("y", fontsize*scaleForWidth);
	var tipBG = svgDocument.getElementById('ToolTipBG');
	var outline = tiptext.getBBox();
	if(tipBG)
	{
		tipBG.setAttribute("stroke-width", 1*scaleForWidth);
		tipBG.setAttribute("width", Number(outline.width) );
		tipBG.setAttribute("height", Number(outline.height) + fontsize*.5*scaleForWidth );
	}
	var ToolTipShadow = svgDocument.getElementById('ToolTipShadow');
	if(ToolTipShadow)
	{
		ToolTipShadow.setAttribute("width", Number(outline.width) );
		ToolTipShadow.setAttribute("height", Number(outline.height) + fontsize*.5*scaleForWidth );
		ToolTipShadow.setAttribute("x", 3*scaleForWidth);
		ToolTipShadow.setAttribute("y", 3*scaleForWidth);
	}
}
function ShowPaper()
{
  var svgDocument = getDocument();
  var paper = svgDocument.getElementById("paperID");
  if(paper)
  {
    paper.setAttribute("transform","scale(1)");
    paper.setAttribute("opacity","1");
    paper.setAttribute("visibility","visible");
  }
  var svg = svgDocument.getRootElement();
  if(svg)
  {
    svg.setAttribute("width","307.000mm");
    svg.setAttribute("height","220.000mm");
    svg.setAttribute("viewBox","-5.000000 -5.000000 307.000000 220.000000");
  }
}
]]></script><defs/><g><path style="fill:#ffffff" d="M296.96,210.01L0.04,210.01L0.04,0.04L296.96,0.04z"/><path style="fill:#1078e9" d="M200.22,72.71L191.28,191.15L190.83,198.22L190.75,198.28L190.73,198.77L190.53,198.82L72.08,181.52L72.33,62.67L72.55,62.58L73.20,62.67z"/><path style="fill:#024a93" d="M174.12,151.23L182.93,152.39L180.83,156.91L180.77,157.38L180.78,157.60L188.11,158.48L187.24,171.44L189.19,171.64L189.33,171.78L189.31,173.58L189.17,174.81L187.83,174.62L186.97,174.61L186.37,183.31L183.22,191.96L182.90,192.60L161.94,189.61L175.94,160.72L176.72,159.24L176.69,159.16L176.10,159.16L175.91,159.41L175.84,159.44L161.11,189.49L141.60,186.71L140.67,186.53L144.10,180.92L158.06,158.17L158.80,157.01L158.54,156.86L158.18,156.86L158.09,156.88L139.74,186.40L135.96,185.91L119.77,183.57L120.11,183.01L140.59,155.62L141.25,154.81L141.21,154.73L140.61,154.72L140.54,154.82L140.47,154.84L118.80,183.47L99.38,180.65L99.30,180.60L123.39,153.33L123.96,152.69L124.00,152.57L123.37,152.56L122.21,153.79L99.13,179.77L98.37,180.51L79.32,177.79L79.66,177.36L82.41,174.74L87.53,169.64L88.73,168.56L93.85,163.46L95.05,162.38L100.30,157.15L101.50,156.06L106.58,150.90L106.95,150.76L107.20,150.42L106.57,150.41L106.48,150.42L105.66,151.22L104.47,152.31L100.69,156.06L99.49,157.15L95.58,161.03L94.39,162.12L90.48,166.00L89.28,167.09L85.37,170.98L84.17,172.06L78.46,177.66L76.92,177.49L76.89,177.40L84.43,170.17L86.86,167.76L88.06,166.68L90.49,164.27L91.69,163.18L94.25,160.64L95.45,159.55L97.88,157.15L99.08,156.06L101.51,153.65L102.71,152.57L105.14,150.16L106.34,149.07L107.00,148.36L122.16,150.23L122.47,150.16L126.73,145.52z"/><path style="fill:#0150a0" d="M181.33,157.11L180.77,157.38L180.83,156.91L182.93,152.39L183.54,152.12z"/><path style="fill:#024f9e" d="M185.02,151.69L183.49,155.00L183.06,156.16L183.00,156.26L181.33,157.11L183.54,152.12L184.20,151.68L185.03,151.32z"/><path style="fill:#01509e" d="M184.56,154.46L184.14,155.62L183.06,156.16L183.49,155.00L185.02,151.69L185.03,151.32L186.23,150.64z"/><path style="fill:#024f9e" d="M187.75,149.85L186.22,153.43L185.74,154.67L184.83,155.27L184.14,155.62L184.56,154.46L186.23,150.64L187.75,149.74z"/><path style="fill:#014e9b" d="M188.66,151.46L188.10,152.62L187.87,153.31L185.74,154.67L186.22,153.43L187.75,149.85L187.75,149.74L188.80,149.04z"/><path style="fill:#020e35" d="M80.06,66.57L80.01,68.63L80.45,68.72L100.48,70.39L100.57,68.17L101.29,68.31L101.38,70.37L101.68,70.48L108.27,71.00L108.81,71.14L108.76,74.68L108.86,74.70L109.44,74.49L113.81,72.58L112.33,128.88L107.75,132.74L107.40,133.18L107.00,148.36L106.34,149.07L105.14,150.16L102.71,152.57L101.51,153.65L99.08,156.06L97.88,157.15L95.45,159.55L94.25,160.64L91.69,163.18L90.49,164.27L88.06,166.68L86.86,167.76L84.43,170.17L76.89,177.40L76.88,159.82L77.37,159.49L103.97,136.63L105.39,135.33L105.46,135.28L105.46,132.95L103.97,134.08L103.89,135.03L76.77,158.07L75.01,159.52L75.03,156.74L76.98,156.92L77.28,90.88L81.75,88.82L81.93,88.88L82.13,89.24L82.25,89.39L82.32,89.55L82.87,89.61L82.92,89.54L83.09,89.36L83.41,88.92L83.69,88.15L83.74,87.93L106.71,77.44L106.81,77.37L106.81,74.77L105.18,75.48L105.10,77.25L89.73,84.22L81.98,87.73L81.88,87.71L81.96,86.82L81.93,85.77L80.41,86.32L79.85,86.68L79.86,87.75L79.92,88.47L79.96,88.54L75.39,90.69L75.29,90.66L75.30,87.52L77.38,87.71L77.45,68.58L79.11,68.64L79.24,66.43z"/><path style="fill:#020e35" d="M204.23,143.35L202.88,159.07L191.73,195.62L190.83,198.22L191.28,191.15L200.22,72.71L210.91,59.29L210.97,59.26z"/><path style="fill:#1078e9" d="M108.69,135.07L108.82,135.35L108.99,135.62L109.52,136.43L109.62,136.71L110.74,138.17L111.40,138.99L111.51,139.26L112.62,140.72L113.84,142.08L115.28,143.80L116.90,145.41L117.97,146.48L118.51,147.02L118.62,147.20L119.31,147.73L119.99,148.23L120.11,148.41L121.20,149.31L122.16,150.23L107.00,148.36L107.40,133.18z"/><path style="fill:#020f1c" d="M113.45,130.76L112.98,131.25L109.44,134.30L108.69,135.07L107.40,133.18L107.75,132.74L112.33,128.88z"/><path style="fill:#ffffff" d="M122.29,72.14L123.20,71.76L123.28,72.26L144.59,74.02L145.51,73.51L145.59,74.00L145.75,74.11L167.53,75.90L167.61,75.80L168.50,75.13L168.57,75.88L168.73,75.99L186.76,77.45L191.06,77.77L191.13,77.68L192.01,76.73L192.08,77.91L193.88,78.12L192.48,98.33L194.20,98.54L192.30,101.69L192.22,101.77L188.80,149.04L187.75,149.74L186.23,150.64L185.03,151.32L184.20,151.68L183.54,152.12L182.93,152.39L174.12,151.23L126.73,145.52L125.52,144.49L124.41,143.57L124.33,143.53L123.86,143.04L122.99,142.32L122.45,141.78L121.49,140.82L119.90,139.23L118.63,137.78L118.54,137.72L118.37,137.37L117.34,136.27L116.13,134.66L115.47,133.85L114.44,132.29L114.35,132.21L113.83,131.40L113.67,131.06L113.59,131.02L113.45,130.76L112.33,128.88L113.81,72.58L114.51,71.52z"/><path style="fill:#022242" d="M121.49,140.82L116.90,145.41L115.28,143.80L116.83,142.23L118.03,141.14L119.90,139.23z"/><path style="fill:#021427" d="M115.47,133.85L115.34,134.02L111.78,137.31L110.74,138.17L109.62,136.71L109.52,136.43L113.92,132.47L114.35,132.21L114.44,132.29z"/><path style="fill:#02162c" d="M116.13,134.66L112.45,138.12L111.40,138.99L110.74,138.17L111.78,137.31L115.34,134.02L115.47,133.85z"/><path style="fill:#02162c" d="M194.19,171.62L194.14,171.87L193.98,171.86L193.93,171.49z"/><path style="fill:#02254a" d="M122.99,142.32L120.45,144.90L118.51,147.02L117.97,146.48L119.38,144.92L122.45,141.78z"/><path style="fill:#02254a" d="M194.23,171.49L194.19,171.62L193.93,171.49L193.94,171.21z"/><path style="fill:#022b55" d="M126.73,145.52L122.47,150.16L122.16,150.23L121.20,149.31L121.79,148.53L124.14,146.05L125.52,144.49z"/><path style="fill:#022b55" d="M194.33,170.84L194.23,171.49L193.94,171.21L193.95,170.54z"/><path style="fill:#014e9a" d="M188.52,152.90L187.87,153.31L188.10,152.62L188.66,151.46z"/><path style="fill:#021e3c" d="M119.90,139.23L118.03,141.14L116.83,142.23L115.28,143.80L113.84,142.08L114.33,141.75L117.77,138.33L118.54,137.72L118.63,137.78z"/><path style="fill:#021930" d="M117.34,136.27L113.39,140.13L112.62,140.72L111.51,139.26L111.40,138.99L112.45,138.12L116.13,134.66z"/><path style="fill:#021b35" d="M118.37,137.37L118.54,137.72L117.77,138.33L114.33,141.75L113.84,142.08L112.62,140.72L113.39,140.13L117.34,136.27z"/><path style="fill:#022346" d="M122.45,141.78L119.38,144.92L117.97,146.48L116.90,145.41L121.49,140.82z"/><path style="fill:#021122" d="M114.35,132.21L113.92,132.47L109.52,136.43L108.99,135.62L113.51,131.66L113.83,131.40z"/><path style="fill:#021122" d="M113.59,131.02L109.71,134.44L108.82,135.35L108.69,135.07L109.44,134.30L112.98,131.25L113.45,130.76z"/><path style="fill:#0150a0" d="M82.92,89.54L82.87,89.61L82.32,89.55L82.25,89.39z"/><path style="fill:#022951" d="M125.52,144.49L124.14,146.05L121.79,148.53L121.20,149.31L120.11,148.41L119.99,148.23L121.40,146.66L123.59,144.42L124.33,143.53L124.41,143.57z"/><path style="fill:#024a93" d="M210.94,59.17L210.97,59.26L210.91,59.29L200.22,72.71L73.20,62.67L72.55,62.58L110.11,51.91z"/><path style="fill:#024a93" d="M106.71,77.44L83.74,87.93L81.98,87.73L89.73,84.22L105.10,77.25z"/><path style="fill:#024a93" d="M81.75,88.82L77.28,90.88L75.39,90.69L79.96,88.54z"/><path style="fill:#024a93" d="M194.68,98.69L194.55,101.97L192.52,101.78L192.30,101.69L194.20,98.54L194.43,98.53z"/><path style="fill:#024a93" d="M105.39,135.33L103.97,136.63L77.37,159.49L76.88,159.82L75.04,159.62L75.01,159.52L76.77,158.07L103.89,135.03z"/><path style="fill:#024a93" d="M79.25,179.64L78.53,179.64L78.50,179.55L79.26,178.87z"/><path style="fill:#024a93" d="M98.42,182.46L98.39,182.37L99.15,181.70L99.13,182.60z"/><path style="fill:#024a93" d="M118.85,185.42L118.82,185.33L119.58,184.38L119.58,185.54z"/><path style="fill:#024a93" d="M139.66,188.28L140.54,187.07L140.48,188.47L139.98,188.47z"/><path style="fill:#024a93" d="M161.02,191.37L161.94,189.61L161.85,191.56L161.34,191.56z"/><path style="fill:#024a93" d="M183.93,192.75L183.67,194.69L182.94,194.69L182.92,194.34L186.24,185.19L185.69,192.94L184.87,192.89z"/><path style="fill:#033f8d" d="M83.70,84.67L82.39,84.53L82.50,84.38L83.06,84.37L83.57,84.40z"/><path style="fill:#033f8d" d="M194.07,168.80L194.49,165.98L194.98,165.84L194.69,168.92z"/><path style="fill:#02274d" d="M123.86,143.04L124.33,143.53L123.59,144.42L121.40,146.66L119.99,148.23L119.31,147.73L118.62,147.20L118.51,147.02L120.45,144.90L122.99,142.32z"/><path style="fill:#063c7e" d="M83.06,84.37L82.50,84.38L82.65,84.23z"/><path style="fill:#063c7e" d="M194.98,165.84L194.49,165.98L194.50,165.72L194.98,165.43z"/><path style="fill:#063c7e" d="M194.69,168.92L194.33,170.84L193.95,170.54L194.07,168.80z"/><path style="fill:#020e35" d="M123.20,71.76L122.29,72.14L122.33,70.06L123.20,70.06z"/><path style="fill:#020e35" d="M145.63,73.06L145.51,73.51L144.59,74.02L144.78,71.80L145.64,71.80z"/><path style="fill:#020e35" d="M192.15,75.69L192.01,76.73L191.13,77.68L191.18,75.87L191.28,75.58L192.01,75.56z"/><path style="fill:#020e35" d="M168.50,75.13L167.61,75.80L167.67,74.13L167.76,73.69L168.62,73.69z"/><path style="fill:#020e35" d="M106.58,150.90L101.50,156.06L100.30,157.15L95.05,162.38L93.85,163.46L88.73,168.56L87.53,169.64L82.41,174.74L79.66,177.36L79.32,177.79L79.26,178.87L78.50,179.55L78.46,177.66L84.17,172.06L85.37,170.98L89.28,167.09L90.48,166.00L94.39,162.12L95.58,161.03L99.49,157.15L100.69,156.06L104.47,152.31L105.66,151.22L106.48,150.42L106.57,150.41z"/><path style="fill:#020e35" d="M123.39,153.33L99.30,180.60L99.22,180.66L99.15,181.70L98.39,182.37L98.37,180.51L99.13,179.77L122.21,153.79L123.37,152.56z"/><path style="fill:#020e35" d="M140.59,155.62L120.11,183.01L119.77,183.57L119.69,183.65L119.58,184.38L118.82,185.33L118.80,183.47L140.47,154.84L140.54,154.82z"/><path style="fill:#020e35" d="M158.06,158.17L144.10,180.92L140.67,186.53L140.54,187.07L139.66,188.28L139.74,186.40L158.09,156.88L158.18,156.86z"/><path style="fill:#020e35" d="M175.94,160.72L161.94,189.61L161.02,191.37L161.11,189.49L175.84,159.44L175.91,159.41z"/><path style="fill:#020e35" d="M186.24,185.19L182.92,194.34L182.90,192.60L183.22,191.96L186.37,183.31z"/><path style="fill:#020e35" d="M190.73,198.77L190.75,198.28L190.83,198.22z"/><path style="fill:#021d6f" d="M114.51,71.52L113.81,72.58L109.44,74.49L108.86,74.70L111.43,71.27z"/><path style="fill:#021d6f" d="M83.57,84.40L83.06,84.37L82.65,84.23L82.81,84.03L83.28,84.03z"/><path style="fill:#021d6f" d="M194.98,165.43L194.50,165.72L194.78,164.80z"/><path style="fill:#0643a9" d="M83.70,84.67L83.69,84.75L82.26,84.71L82.39,84.53z"/><path style="fill:#0643a9" d="M82.25,89.39L82.13,89.24L83.09,89.36L82.92,89.54z"/><path style="fill:#1078e9" d="M105.10,77.25L105.18,75.48L106.81,74.77L106.81,77.37L106.71,77.44z"/><path style="fill:#1078e9" d="M79.85,86.68L80.41,86.32L81.93,85.77L81.96,86.82z"/><path style="fill:#1078e9" d="M83.69,88.15L83.41,88.92L83.09,89.36L82.13,89.24L81.93,88.88L81.75,88.82L79.96,88.54L79.92,88.47L79.86,87.75z"/><path style="fill:#1078e9" d="M103.89,135.03L103.97,134.08L105.46,132.95L105.46,135.28L105.39,135.33z"/><path style="fill:#1078e9" d="M106.95,150.76L106.58,150.90L106.57,150.41L107.20,150.42z"/><path style="fill:#1078e9" d="M123.96,152.69L123.39,153.33L123.37,152.56L124.00,152.57z"/><path style="fill:#1078e9" d="M141.25,154.81L140.59,155.62L140.54,154.82L140.61,154.72L141.21,154.73z"/><path style="fill:#1078e9" d="M158.80,157.01L158.06,158.17L158.18,156.86L158.54,156.86z"/><path style="fill:#1078e9" d="M176.72,159.24L175.94,160.72L175.91,159.41L176.10,159.16L176.69,159.16z"/><path style="fill:#020f1c" d="M113.83,131.40L113.51,131.66L108.99,135.62L108.82,135.35L109.71,134.44L113.59,131.02L113.67,131.06z"/><path style="fill:#ffffff" d="M81.96,86.82L81.88,87.71L81.98,87.73L83.74,87.93L83.69,88.15L79.86,87.75L79.85,86.68z"/><g id="Actor_.0"><g style="stroke:#000000;stroke-width:0.176"><path d="M72.35,62.60L200.20,72.72L211.00,59.11"/><path d="M100.47,70.36L100.51,68.15L101.39,68.22L101.36,70.01L100.47,70.36L80.02,68.68L80.03,66.49L79.18,66.43L79.16,68.61L77.45,68.47L77.34,87.67L75.31,87.48L75.30,90.67L77.32,90.86L76.95,156.89L75.00,156.63L74.99,159.58L76.93,159.83L76.83,177.43L107.02,148.36L107.38,133.07L112.30,128.86"/><path d="M103.87,134.19L103.85,135.07L74.99,159.58"/><path d="M75.30,90.67L79.94,88.58L79.82,88.00L79.77,87.11L79.80,86.59L77.34,87.67"/><path d="M79.23,178.79L79.22,179.70L78.42,179.58L79.23,178.79L79.24,177.78L106.50,151.09L106.52,150.33L78.44,177.66L76.83,177.43"/><path d="M76.93,159.83L105.49,135.26L103.85,135.07"/><path d="M76.95,156.89L105.55,132.77L105.49,135.26"/><path d="M79.94,88.58L81.91,88.76L77.32,90.86"/><path d="M78.42,179.58L78.44,177.66"/><path d="M79.24,177.78L98.41,180.52L98.37,182.46L99.21,181.50"/><path d="M79.80,86.59L81.92,85.66L81.97,85.54L81.98,86.59L81.80,87.74L83.76,87.92L83.58,88.53L83.27,89.18L82.92,89.57L82.56,89.66L82.23,89.44L81.96,88.93L81.91,88.76"/><path d="M79.16,68.61L80.02,68.32"/><path d="M81.80,87.74L105.09,77.24L106.79,77.39L83.76,87.92"/><path d="M81.97,85.54L82.26,84.70L83.79,84.84L83.62,84.38L83.32,84.00L82.97,83.93L82.61,84.16L82.26,84.70"/><path d="M83.79,84.84L105.12,75.49L105.09,77.24"/><path d="M98.37,182.46L99.19,182.58L99.23,180.64L118.84,183.44L118.78,185.40L119.61,185.52L119.68,183.56L140.56,155.71L140.61,154.62L118.84,183.44"/><path d="M98.41,180.52L123.41,152.45L124.10,152.54L123.38,153.35L123.41,152.45"/><path d="M99.23,180.64L123.38,153.35"/><path d="M108.84,71.05L108.75,74.79L111.38,71.26L101.35,70.43L101.36,70.01"/><path d="M105.12,75.49L106.85,74.73L106.79,77.39"/><path d="M106.52,150.33L107.20,150.41L106.50,151.09"/><path d="M107.02,148.36L122.34,150.27L118.83,147.31L115.56,144.09L112.55,140.63L109.82,136.95L107.38,133.07"/><path d="M108.75,74.79L113.78,72.55"/><path d="M111.38,71.28L111.65,71.28L114.56,71.52"/><path d="M118.78,185.40L119.65,184.22"/><path d="M119.68,183.56L139.73,186.43L139.64,188.41L140.57,186.89"/><path d="M126.73,145.46L122.34,150.27"/><path d="M122.29,72.15L122.36,69.92L123.26,69.99L123.21,71.72"/><path d="M139.64,188.41L140.50,188.53L140.59,186.56L161.10,189.49L160.99,191.48L161.86,191.61L161.98,189.62L182.97,192.62L182.83,194.63L183.73,194.76L183.87,192.75L186.15,186.31L185.67,193.01L183.87,192.75"/><path d="M139.73,186.43L158.14,156.82L158.07,158.20"/><path d="M140.59,186.56L158.86,156.91L158.14,156.82"/><path d="M140.56,155.71L141.32,154.70L140.61,154.62"/><path d="M144.65,73.99L144.75,71.73L145.67,71.81L145.60,73.43"/><path d="M160.99,191.48L175.90,160.75L175.96,160.76"/><path d="M161.10,189.49L176.00,159.07L175.90,160.75"/><path d="M161.98,189.62L176.74,159.16L176.00,159.07"/><path d="M167.55,75.87L167.68,73.59L168.63,73.67L168.55,75.09"/><path d="M182.99,152.31L180.57,157.53L184.58,155.42L188.56,152.84L188.84,148.98"/><path d="M180.57,157.53L188.15,158.48"/><path d="M182.83,194.63L186.24,185.05"/><path d="M182.97,192.62L186.38,183.14"/><path d="M188.56,152.84L187.22,171.40L188.12,171.52L187.00,174.50L186.15,186.31"/><path d="M187.00,174.50L189.20,174.79L189.42,171.69L188.12,171.52"/><path d="M190.72,198.82L200.20,72.72"/><path d="M191.03,77.80L191.19,75.49L192.16,75.57L192.09,76.59"/><path d="M192.23,101.74L194.53,101.96L194.77,98.58L194.23,98.53"/><path d="M194.18,171.71L194.14,171.83L194.02,171.99L193.94,171.75L193.92,171.13L193.95,170.21L194.03,169.09L194.32,166.74L194.49,165.76L194.65,165.08L194.79,164.75L194.89,164.82L194.94,165.27L194.93,166.04L194.87,167.07L194.62,169.40L194.46,170.47L194.29,171.31L194.18,171.71"/></g><g style="stroke:#000000;stroke-width:0.529"><path d="M72.02,181.52L72.35,62.60L110.21,51.89L211.00,59.11L202.96,158.83L190.72,198.82L72.02,181.52"/><path d="M112.30,128.86L113.78,72.55L114.56,71.52L122.29,72.15L123.21,71.72L123.19,72.23L144.65,73.99L145.60,73.43L145.57,74.07L167.55,75.87L168.55,75.09L168.50,75.95L191.03,77.80L192.09,76.59L192.00,77.88L193.93,78.04L192.47,98.37L194.23,98.53L192.23,101.74L188.84,148.98L186.87,150.26L182.99,152.31L126.73,145.46L123.35,142.61L120.19,139.50L117.28,136.16L114.65,132.60L112.30,128.86"/></g></g><g/><g><g/><g><path style="stroke:#000000;stroke-width:0.125;fill:#ffffff" d="M246.01,11.73L264.72,11.73L264.72,26.97L246.01,26.97z"/><text xml:space="preserve" fill="#000000" stroke-width="0" x="247.92" y="22.21" font-size="8.86" opacity="1.00" font-family="MS Shell Dlg">Exit</text></g></g><g><g/><g><path style="stroke:#000000;stroke-width:0.125;fill:#ffffff" d="M93.97,29.67L186.07,29.67L186.07,40.40L93.97,40.40z"/><text xml:space="preserve" fill="#000000" stroke-width="0" x="95.31" y="37.05" font-size="6.55" opacity="1.00" font-family="MS Shell Dlg">Custom 3D printed wind tunnel</text></g></g><g/><g id="paperID" visibility="hidden" opacity="0.00" transform="scale(0.000100)"><path style="stroke:#000000;stroke-width:0.500;fill:#e6e6e6;fill-rule:evenodd" d="M-2000.00,-2000.00L2297.00,-2000.00L2297.00,2210.00L-2000.00,2210.00zM0.00,0.00L297.00,0.00L297.00,210.00L0.00,210.00z"/><path style="fill:#000000;fill-opacity:0.118" d="M3.00,210.00L297.00,210.00L297.00,3.00L300.00,3.00L300.00,213.00L3.00,213.00z"/></g><g id="hotspot.0" onmouseover="ShowHotSpot(evt,'0')" onmouseout="HideHotSpot(evt,'0')" onmousemove="ShowToolTip(evt,'0',&quot;2D Text 3&quot;)" opacity="0"><a xlink:href="main.svg"><path style="fill:#00ff00;fill-rule:evenodd" d="M245.87,11.65L264.84,11.60L264.84,27.11L245.87,27.06z"/></a></g><g id="hotspot.1" onmouseover="ShowHotSpot(evt,'1')" onmouseout="HideHotSpot(evt,'1')" onmousemove="ShowToolTip(evt,'1',&quot;Hotspot 1&quot;)" opacity="0"><path style="fill:#ff8000;fill-rule:evenodd" d="M210.95,59.17L210.94,60.03L204.23,143.35L202.88,159.07L190.74,198.82L72.08,181.52L72.35,62.67L110.11,51.91zM121.31,72.08L122.48,72.08L123.02,71.78L123.19,71.80L123.28,72.26L144.15,73.96L144.78,73.95L145.51,73.56L145.59,74.00L145.75,74.11L167.14,75.84L167.62,75.84L168.49,75.17L168.57,75.89L168.73,75.99L189.98,77.72L191.14,77.72L191.95,76.77L192.08,77.91L193.88,78.12L192.48,98.33L194.16,98.56L194.17,98.72L192.26,101.68L189.44,140.79L188.79,149.01L187.50,149.87L183.08,152.32L126.69,145.45L123.07,142.35L119.44,138.72L116.75,135.50L113.91,131.48L112.43,129.07L112.44,124.40L113.78,73.20L113.92,72.40L114.56,71.54z"/></g><g id="ToolTip" visibility="hidden" opacity="0" transform="translate(0,0)"><rect id="ToolTipShadow" opacity="0.20" fill="black" stroke="none" x="0" y="0" width="30" height="8"/><rect id="ToolTipBG" fill="#ffffe1" stroke="black" x="0" y="0" width="30" height="8"/><text xml:space="preserve" id="ToolTipText" fill="black" x="0" y="0" width="30" height="8">tooltip</text></g></g></svg>
